<?xml version="1.0" encoding="utf-8"?>
<!-- Generator: Adobe Illustrator 21.0.0, SVG Export Plug-In . SVG Version: 6.00 Build 0)  -->
<svg version="1.1" id="Layer_1" xmlns="http://www.w3.org/2000/svg" xmlns:xlink="http://www.w3.org/1999/xlink" x="0px" y="0px"
	 viewBox="0 0 462 306" style="enable-background:new 0 0 462 306;" xml:space="preserve">
<style type="text/css">
	.st0{fill:#CF4060;}
	.st1{fill:#FFFFFF;}
	.st2{fill:#4E4E50;}
	.st3{clip-path:url(#SVGID_2_);fill:#7B2139;}
	.st4{clip-path:url(#SVGID_2_);fill:#7E233A;}
	.st5{clip-path:url(#SVGID_2_);fill:#81243C;}
	.st6{clip-path:url(#SVGID_2_);fill:#85253E;}
	.st7{clip-path:url(#SVGID_2_);fill:#88273F;}
	.st8{clip-path:url(#SVGID_2_);fill:#8B2841;}
	.st9{clip-path:url(#SVGID_2_);fill:#8F2943;}
	.st10{clip-path:url(#SVGID_2_);fill:#922B44;}
	.st11{clip-path:url(#SVGID_2_);fill:#952C46;}
	.st12{clip-path:url(#SVGID_2_);fill:#992D48;}
	.st13{clip-path:url(#SVGID_2_);fill:#9C2E4A;}
	.st14{clip-path:url(#SVGID_2_);fill:#A0304B;}
	.st15{clip-path:url(#SVGID_2_);fill:#A3314D;}
	.st16{clip-path:url(#SVGID_2_);fill:#A6324E;}
	.st17{clip-path:url(#SVGID_2_);fill:#AA3350;}
	.st18{clip-path:url(#SVGID_2_);fill:#AD3452;}
	.st19{clip-path:url(#SVGID_2_);fill:#B13653;}
	.st20{clip-path:url(#SVGID_2_);fill:#B43755;}
	.st21{clip-path:url(#SVGID_2_);fill:#B73856;}
	.st22{clip-path:url(#SVGID_2_);fill:#BB3958;}
	.st23{clip-path:url(#SVGID_4_);fill:#7B2139;}
	.st24{clip-path:url(#SVGID_4_);fill:#7E233A;}
	.st25{clip-path:url(#SVGID_4_);fill:#81243C;}
	.st26{clip-path:url(#SVGID_4_);fill:#85253E;}
	.st27{clip-path:url(#SVGID_4_);fill:#88273F;}
	.st28{clip-path:url(#SVGID_4_);fill:#8B2841;}
	.st29{clip-path:url(#SVGID_4_);fill:#8F2943;}
	.st30{clip-path:url(#SVGID_4_);fill:#922B44;}
	.st31{clip-path:url(#SVGID_6_);fill:#922B44;}
	.st32{clip-path:url(#SVGID_6_);fill:#952C46;}
	.st33{clip-path:url(#SVGID_6_);fill:#992D48;}
	.st34{clip-path:url(#SVGID_6_);fill:#9C2E4A;}
	.st35{clip-path:url(#SVGID_6_);fill:#A0304B;}
	.st36{clip-path:url(#SVGID_6_);fill:#A3314D;}
	.st37{clip-path:url(#SVGID_6_);fill:#A6324E;}
	.st38{clip-path:url(#SVGID_6_);fill:#AA3350;}
	.st39{clip-path:url(#SVGID_6_);fill:#AD3452;}
	.st40{clip-path:url(#SVGID_6_);fill:#B13653;}
	.st41{clip-path:url(#SVGID_6_);fill:#B43755;}
	.st42{clip-path:url(#SVGID_6_);fill:#B73856;}
	.st43{clip-path:url(#SVGID_6_);fill:#BB3958;}
	.st44{clip-path:url(#SVGID_6_);fill:#8F2943;}
	.st45{clip-path:url(#SVGID_6_);fill:#8B2841;}
	.st46{clip-path:url(#SVGID_6_);fill:#88273F;}
	.st47{clip-path:url(#SVGID_6_);fill:#85253E;}
	.st48{clip-path:url(#SVGID_6_);fill:#81243C;}
	.st49{clip-path:url(#SVGID_6_);fill:#7E233A;}
	.st50{clip-path:url(#SVGID_6_);fill:#7B2139;}
	.st51{clip-path:url(#SVGID_8_);fill:#7B2139;}
	.st52{clip-path:url(#SVGID_8_);fill:#7E233A;}
	.st53{clip-path:url(#SVGID_8_);fill:#81243C;}
	.st54{clip-path:url(#SVGID_8_);fill:#85253E;}
	.st55{clip-path:url(#SVGID_8_);fill:#88273F;}
	.st56{clip-path:url(#SVGID_8_);fill:#8B2841;}
	.st57{clip-path:url(#SVGID_8_);fill:#8F2943;}
	.st58{clip-path:url(#SVGID_8_);fill:#922B44;}
	.st59{clip-path:url(#SVGID_8_);fill:#952C46;}
	.st60{clip-path:url(#SVGID_8_);fill:#992D48;}
	.st61{clip-path:url(#SVGID_8_);fill:#9C2E4A;}
	.st62{clip-path:url(#SVGID_8_);fill:#A0304B;}
	.st63{clip-path:url(#SVGID_8_);fill:#A3314D;}
	.st64{clip-path:url(#SVGID_8_);fill:#A6324E;}
	.st65{clip-path:url(#SVGID_10_);fill:#A6324E;}
	.st66{clip-path:url(#SVGID_10_);fill:#AA3350;}
	.st67{clip-path:url(#SVGID_10_);fill:#AD3452;}
	.st68{clip-path:url(#SVGID_10_);fill:#B13653;}
	.st69{clip-path:url(#SVGID_10_);fill:#B43755;}
	.st70{clip-path:url(#SVGID_10_);fill:#B73856;}
	.st71{clip-path:url(#SVGID_10_);fill:#BB3958;}
	.st72{clip-path:url(#SVGID_10_);fill:#BE3A59;}
	.st73{clip-path:url(#SVGID_10_);fill:#C23B5B;}
	.st74{clip-path:url(#SVGID_10_);fill:#C53C5C;}
	.st75{clip-path:url(#SVGID_10_);fill:#C93D5E;}
	.st76{clip-path:url(#SVGID_10_);fill:#CE3F60;}
	.st77{clip-path:url(#SVGID_10_);fill:#D25B6D;}
	.st78{clip-path:url(#SVGID_10_);fill:#D46573;}
	.st79{clip-path:url(#SVGID_10_);fill:#D66C78;}
	.st80{clip-path:url(#SVGID_10_);fill:#D7737C;}
	.st81{clip-path:url(#SVGID_10_);fill:#D87780;}
	.st82{clip-path:url(#SVGID_10_);fill:#D97C83;}
	.st83{clip-path:url(#SVGID_10_);fill:#DA8086;}
	.st84{clip-path:url(#SVGID_10_);fill:#DB8489;}
	.st85{clip-path:url(#SVGID_10_);fill:#DB878C;}
	.st86{clip-path:url(#SVGID_10_);fill:#DC8A8F;}
	.st87{clip-path:url(#SVGID_10_);fill:#DD8D91;}
	.st88{clip-path:url(#SVGID_10_);fill:#DE9094;}
	.st89{clip-path:url(#SVGID_10_);fill:#DE9396;}
	.st90{clip-path:url(#SVGID_10_);fill:#DF9699;}
	.st91{clip-path:url(#SVGID_10_);fill:#A3314D;}
	.st92{clip-path:url(#SVGID_10_);fill:#A0304B;}
	.st93{clip-path:url(#SVGID_10_);fill:#9C2E4A;}
	.st94{clip-path:url(#SVGID_10_);fill:#992D48;}
	.st95{clip-path:url(#SVGID_10_);fill:#952C46;}
	.st96{clip-path:url(#SVGID_10_);fill:#922B44;}
	.st97{clip-path:url(#SVGID_10_);fill:#8F2943;}
	.st98{clip-path:url(#SVGID_10_);fill:#8B2841;}
	.st99{clip-path:url(#SVGID_10_);fill:#88273F;}
	.st100{clip-path:url(#SVGID_10_);fill:#85253E;}
	.st101{clip-path:url(#SVGID_10_);fill:#81243C;}
	.st102{clip-path:url(#SVGID_10_);fill:#7E233A;}
	.st103{clip-path:url(#SVGID_10_);fill:#7B2139;}
	.st104{fill:#962C47;}
	.st105{clip-path:url(#SVGID_12_);fill:#7B2139;}
	.st106{fill:#782037;}
	.st107{clip-path:url(#SVGID_14_);fill:#7B2139;}
	.st108{clip-path:url(#SVGID_14_);fill:#7E233A;}
	.st109{clip-path:url(#SVGID_14_);fill:#81243C;}
	.st110{clip-path:url(#SVGID_14_);fill:#85253E;}
	.st111{clip-path:url(#SVGID_14_);fill:#88273F;}
	.st112{clip-path:url(#SVGID_14_);fill:#8B2841;}
	.st113{clip-path:url(#SVGID_14_);fill:#8F2943;}
	.st114{clip-path:url(#SVGID_14_);fill:#922B44;}
	.st115{clip-path:url(#SVGID_16_);fill:#7B2139;}
	.st116{clip-path:url(#SVGID_18_);fill:#7B2139;}
	.st117{clip-path:url(#SVGID_18_);fill:#7E233A;}
	.st118{clip-path:url(#SVGID_18_);fill:#81243C;}
	.st119{clip-path:url(#SVGID_18_);fill:#85253E;}
	.st120{clip-path:url(#SVGID_18_);fill:#88273F;}
	.st121{clip-path:url(#SVGID_18_);fill:#8B2841;}
	.st122{clip-path:url(#SVGID_18_);fill:#8F2943;}
	.st123{clip-path:url(#SVGID_18_);fill:#922B44;}
	.st124{clip-path:url(#SVGID_18_);fill:#952C46;}
	.st125{clip-path:url(#SVGID_18_);fill:#992D48;}
	.st126{clip-path:url(#SVGID_18_);fill:#9C2E4A;}
	.st127{clip-path:url(#SVGID_18_);fill:#A0304B;}
	.st128{clip-path:url(#SVGID_18_);fill:#A3314D;}
	.st129{clip-path:url(#SVGID_18_);fill:#A6324E;}
	.st130{fill:#992D48;}
	.st131{fill:#AF3552;}
	.st132{clip-path:url(#SVGID_20_);fill:#A0304B;}
	.st133{clip-path:url(#SVGID_20_);fill:#9C2E4A;}
	.st134{clip-path:url(#SVGID_20_);fill:#992D48;}
	.st135{clip-path:url(#SVGID_20_);fill:#952C46;}
	.st136{clip-path:url(#SVGID_20_);fill:#922B44;}
	.st137{clip-path:url(#SVGID_20_);fill:#8F2943;}
	.st138{clip-path:url(#SVGID_20_);fill:#8B2841;}
	.st139{clip-path:url(#SVGID_20_);fill:#88273F;}
	.st140{clip-path:url(#SVGID_20_);fill:#85253E;}
	.st141{clip-path:url(#SVGID_20_);fill:#81243C;}
	.st142{clip-path:url(#SVGID_20_);fill:#7E233A;}
	.st143{clip-path:url(#SVGID_20_);fill:#7B2139;}
	.st144{fill:#A8334F;}
	.st145{clip-path:url(#SVGID_22_);fill:#B43755;}
	.st146{clip-path:url(#SVGID_22_);fill:#B13653;}
	.st147{clip-path:url(#SVGID_22_);fill:#AD3452;}
	.st148{clip-path:url(#SVGID_22_);fill:#AA3350;}
	.st149{clip-path:url(#SVGID_22_);fill:#A6324E;}
	.st150{clip-path:url(#SVGID_22_);fill:#A3314D;}
	.st151{clip-path:url(#SVGID_22_);fill:#A0304B;}
	.st152{clip-path:url(#SVGID_22_);fill:#9C2E4A;}
	.st153{clip-path:url(#SVGID_22_);fill:#992D48;}
	.st154{clip-path:url(#SVGID_22_);fill:#952C46;}
	.st155{clip-path:url(#SVGID_22_);fill:#922B44;}
	.st156{clip-path:url(#SVGID_22_);fill:#8F2943;}
	.st157{clip-path:url(#SVGID_22_);fill:#8B2841;}
	.st158{clip-path:url(#SVGID_22_);fill:#88273F;}
	.st159{clip-path:url(#SVGID_22_);fill:#85253E;}
	.st160{clip-path:url(#SVGID_22_);fill:#81243C;}
	.st161{clip-path:url(#SVGID_22_);fill:#7E233A;}
	.st162{clip-path:url(#SVGID_22_);fill:#7B2139;}
	.st163{fill:#B83856;}
	.st164{clip-path:url(#SVGID_24_);fill:#7B2139;}
	.st165{clip-path:url(#SVGID_24_);fill:#7E233A;}
	.st166{clip-path:url(#SVGID_24_);fill:#81243C;}
	.st167{clip-path:url(#SVGID_24_);fill:#85253E;}
	.st168{clip-path:url(#SVGID_24_);fill:#88273F;}
	.st169{clip-path:url(#SVGID_24_);fill:#8B2841;}
	.st170{clip-path:url(#SVGID_24_);fill:#8F2943;}
	.st171{clip-path:url(#SVGID_24_);fill:#922B44;}
	.st172{clip-path:url(#SVGID_26_);fill:#7B2139;}
	.st173{clip-path:url(#SVGID_26_);fill:#7E233A;}
	.st174{clip-path:url(#SVGID_26_);fill:#81243C;}
	.st175{clip-path:url(#SVGID_26_);fill:#85253E;}
	.st176{clip-path:url(#SVGID_26_);fill:#88273F;}
	.st177{clip-path:url(#SVGID_26_);fill:#8B2841;}
	.st178{clip-path:url(#SVGID_26_);fill:#8F2943;}
	.st179{clip-path:url(#SVGID_26_);fill:#922B44;}
	.st180{clip-path:url(#SVGID_26_);fill:#952C46;}
	.st181{clip-path:url(#SVGID_26_);fill:#992D48;}
	.st182{clip-path:url(#SVGID_26_);fill:#9C2E4A;}
	.st183{clip-path:url(#SVGID_26_);fill:#A0304B;}
	.st184{clip-path:url(#SVGID_26_);fill:#A3314D;}
	.st185{clip-path:url(#SVGID_26_);fill:#A6324E;}
	.st186{clip-path:url(#SVGID_28_);fill:#922B44;}
	.st187{clip-path:url(#SVGID_28_);fill:#952C46;}
	.st188{clip-path:url(#SVGID_28_);fill:#992D48;}
	.st189{clip-path:url(#SVGID_28_);fill:#9C2E4A;}
	.st190{clip-path:url(#SVGID_28_);fill:#A0304B;}
	.st191{clip-path:url(#SVGID_28_);fill:#A3314D;}
	.st192{clip-path:url(#SVGID_28_);fill:#A6324E;}
	.st193{clip-path:url(#SVGID_28_);fill:#AA3350;}
	.st194{clip-path:url(#SVGID_28_);fill:#AD3452;}
	.st195{clip-path:url(#SVGID_28_);fill:#B13653;}
	.st196{clip-path:url(#SVGID_28_);fill:#B43755;}
	.st197{clip-path:url(#SVGID_28_);fill:#B73856;}
	.st198{clip-path:url(#SVGID_30_);fill:#A0304B;}
	.st199{clip-path:url(#SVGID_30_);fill:#9C2E4A;}
	.st200{clip-path:url(#SVGID_30_);fill:#992D48;}
	.st201{clip-path:url(#SVGID_30_);fill:#952C46;}
	.st202{clip-path:url(#SVGID_30_);fill:#922B44;}
	.st203{clip-path:url(#SVGID_30_);fill:#8F2943;}
	.st204{clip-path:url(#SVGID_30_);fill:#8B2841;}
	.st205{clip-path:url(#SVGID_30_);fill:#88273F;}
	.st206{clip-path:url(#SVGID_30_);fill:#85253E;}
	.st207{clip-path:url(#SVGID_30_);fill:#81243C;}
	.st208{clip-path:url(#SVGID_30_);fill:#7E233A;}
	.st209{clip-path:url(#SVGID_30_);fill:#7B2139;}
	.st210{clip-path:url(#SVGID_32_);fill:#A6324E;}
	.st211{clip-path:url(#SVGID_32_);fill:#AA3350;}
	.st212{clip-path:url(#SVGID_32_);fill:#AD3452;}
	.st213{clip-path:url(#SVGID_32_);fill:#B13653;}
	.st214{clip-path:url(#SVGID_32_);fill:#B43755;}
	.st215{clip-path:url(#SVGID_32_);fill:#B73856;}
	.st216{clip-path:url(#SVGID_32_);fill:#BB3958;}
	.st217{clip-path:url(#SVGID_32_);fill:#BE3A59;}
	.st218{clip-path:url(#SVGID_32_);fill:#C23B5B;}
	.st219{clip-path:url(#SVGID_32_);fill:#C53C5C;}
	.st220{clip-path:url(#SVGID_32_);fill:#C93D5E;}
	.st221{clip-path:url(#SVGID_32_);fill:#CE3F60;}
	.st222{clip-path:url(#SVGID_32_);fill:#D25B6D;}
	.st223{clip-path:url(#SVGID_32_);fill:#D46573;}
	.st224{clip-path:url(#SVGID_32_);fill:#D66C78;}
	.st225{clip-path:url(#SVGID_32_);fill:#D7737C;}
	.st226{clip-path:url(#SVGID_32_);fill:#D87780;}
	.st227{clip-path:url(#SVGID_32_);fill:#D97C83;}
	.st228{clip-path:url(#SVGID_32_);fill:#DA8086;}
	.st229{clip-path:url(#SVGID_32_);fill:#DB8489;}
	.st230{clip-path:url(#SVGID_32_);fill:#DB878C;}
	.st231{clip-path:url(#SVGID_32_);fill:#DC8A8F;}
	.st232{clip-path:url(#SVGID_32_);fill:#DD8D91;}
	.st233{clip-path:url(#SVGID_32_);fill:#DE9094;}
	.st234{clip-path:url(#SVGID_32_);fill:#DE9396;}
	.st235{clip-path:url(#SVGID_34_);fill:#B43755;}
	.st236{clip-path:url(#SVGID_34_);fill:#B13653;}
	.st237{clip-path:url(#SVGID_34_);fill:#AD3452;}
	.st238{clip-path:url(#SVGID_34_);fill:#AA3350;}
	.st239{clip-path:url(#SVGID_34_);fill:#A6324E;}
	.st240{clip-path:url(#SVGID_34_);fill:#A3314D;}
	.st241{clip-path:url(#SVGID_34_);fill:#A0304B;}
	.st242{clip-path:url(#SVGID_34_);fill:#9C2E4A;}
	.st243{clip-path:url(#SVGID_34_);fill:#992D48;}
	.st244{clip-path:url(#SVGID_34_);fill:#952C46;}
	.st245{clip-path:url(#SVGID_34_);fill:#922B44;}
	.st246{clip-path:url(#SVGID_34_);fill:#8F2943;}
	.st247{clip-path:url(#SVGID_34_);fill:#8B2841;}
	.st248{clip-path:url(#SVGID_34_);fill:#88273F;}
	.st249{clip-path:url(#SVGID_34_);fill:#85253E;}
	.st250{clip-path:url(#SVGID_34_);fill:#81243C;}
	.st251{clip-path:url(#SVGID_34_);fill:#7E233A;}
	.st252{clip-path:url(#SVGID_34_);fill:#7B2139;}
	.st253{clip-path:url(#SVGID_36_);fill:#922B44;}
	.st254{clip-path:url(#SVGID_36_);fill:#952C46;}
	.st255{clip-path:url(#SVGID_36_);fill:#992D48;}
	.st256{clip-path:url(#SVGID_36_);fill:#9C2E4A;}
	.st257{clip-path:url(#SVGID_36_);fill:#A0304B;}
	.st258{clip-path:url(#SVGID_36_);fill:#A3314D;}
	.st259{clip-path:url(#SVGID_36_);fill:#A6324E;}
	.st260{clip-path:url(#SVGID_36_);fill:#AA3350;}
	.st261{clip-path:url(#SVGID_36_);fill:#AD3452;}
	.st262{clip-path:url(#SVGID_36_);fill:#B13653;}
	.st263{clip-path:url(#SVGID_36_);fill:#B43755;}
	.st264{clip-path:url(#SVGID_36_);fill:#B73856;}
	.st265{fill:#982D47;}
	.st266{clip-path:url(#SVGID_38_);fill:#A6324E;}
	.st267{clip-path:url(#SVGID_38_);fill:#AA3350;}
	.st268{clip-path:url(#SVGID_38_);fill:#AD3452;}
	.st269{clip-path:url(#SVGID_38_);fill:#B13653;}
	.st270{clip-path:url(#SVGID_38_);fill:#B43755;}
	.st271{clip-path:url(#SVGID_38_);fill:#B73856;}
	.st272{clip-path:url(#SVGID_38_);fill:#BB3958;}
	.st273{clip-path:url(#SVGID_38_);fill:#BE3A59;}
	.st274{clip-path:url(#SVGID_38_);fill:#C23B5B;}
	.st275{clip-path:url(#SVGID_38_);fill:#C53C5C;}
	.st276{clip-path:url(#SVGID_38_);fill:#C93D5E;}
	.st277{clip-path:url(#SVGID_38_);fill:#CE3F60;}
	.st278{clip-path:url(#SVGID_38_);fill:#D25B6D;}
	.st279{clip-path:url(#SVGID_38_);fill:#D46573;}
	.st280{clip-path:url(#SVGID_38_);fill:#D66C78;}
	.st281{clip-path:url(#SVGID_38_);fill:#D7737C;}
	.st282{clip-path:url(#SVGID_38_);fill:#D87780;}
	.st283{clip-path:url(#SVGID_38_);fill:#D97C83;}
	.st284{clip-path:url(#SVGID_38_);fill:#DA8086;}
	.st285{clip-path:url(#SVGID_38_);fill:#DB8489;}
	.st286{clip-path:url(#SVGID_38_);fill:#DB878C;}
	.st287{clip-path:url(#SVGID_38_);fill:#DC8A8F;}
	.st288{clip-path:url(#SVGID_38_);fill:#DD8D91;}
	.st289{clip-path:url(#SVGID_38_);fill:#DE9094;}
	.st290{clip-path:url(#SVGID_38_);fill:#DE9396;}
	.st291{fill:#2F366F;}
</style>
<g>
	<g>
		<path class="st0" d="M44.2,104.8c8.5-42.6,83.6-52.8,115.3-19.3c9.6,10.2,14.7,23.4,27.8,30.8c17.6,10,42.7,5.5,61.2-3.3
			c18.5-8.7,34.1-21.3,54-28c34.7-11.7,71.7,7.8,88.9,31.3c18.9,25.8,17.8,59,0.7,85.5s-48.6,46.4-84,57.2
			c-39.6,12.1-86.2,13-124-2.5c-20.8-8.5-38.1-22.3-48.6-38.6c-8.4-12.9-9.5-28.6-18.8-41c-9.7-12.9-29.6-15.4-44.2-23.6
			c-16.9-9.5-28.7-24.4-29-40.8C43.5,110,43.7,107.4,44.2,104.8"/>
		<path class="st1" d="M410.7,58.1c-7.3-13.3-21.7-24.5-39.2-26.7c-21.2-2.7-41.8,7.7-58.6,19.1c-16.8,11.4-32.9,24.7-53.7,29.7
			c-37.2,8.9-74.6-11.5-113.2-11.9C121,68,95.7,76.7,78,91.8c-65.7,56.1-5.1,147.3,67.1,172.7c58.3,20.5,129.4,9.7,182.1-20.9
			c50.3-29.2,82.3-80.8,89.7-130.7c0.6-3.9,1-7.8,1.3-11.7C419.2,86.5,418,71.4,410.7,58.1"/>
		<path class="st2" d="M130.8,192.4H68c-1.2,0-2.2-1-2.2-2.2v-62.8c0-1.2,1-2.2,2.2-2.2h38.9c1.2,0,2.2,1,2.2,2.2
			c0,1.2-1,2.2-2.2,2.2H70.2V188h58.4v-41.6c0-1.2,1-2.2,2.2-2.2c1.2,0,2.2,1,2.2,2.2v43.8C133,191.4,132,192.4,130.8,192.4"/>
	</g>
	<g>
		<defs>
			<path id="SVGID_1_" d="M86,142l-3.5,2c0.5-0.3,1.1-0.4,1.7-0.4c0.6,0.1,1.3,0.4,1.9,1.1c2.6,3.1,4.8,6.7,7,10
				c1.1,1.6,2.2,3.2,3.2,4.8l3.5-2c-1.1-1.6-2.2-3.2-3.2-4.8c-2.3-3.4-4.4-6.9-7-10c-0.6-0.7-1.2-1-1.9-1.1c-0.1,0-0.2,0-0.3,0
				C86.9,141.6,86.5,141.7,86,142"/>
		</defs>
		<clipPath id="SVGID_2_">
			<use xlink:href="#SVGID_1_"  style="overflow:visible;"/>
		</clipPath>
		<path class="st3" d="M82.6,144l3.5-2c0.1-0.1,0.3-0.1,0.4-0.2l-3.5,2C82.8,143.8,82.7,143.9,82.6,144"/>
		<path class="st4" d="M83,143.8l3.5-2c0.1,0,0.2-0.1,0.3-0.1l-3.5,2C83.2,143.7,83.1,143.7,83,143.8"/>
		<path class="st5" d="M83.3,143.7l3.5-2c0.1,0,0.2,0,0.2-0.1l-3.5,2C83.4,143.6,83.4,143.6,83.3,143.7"/>
		<path class="st6" d="M83.5,143.6l3.5-2c0.1,0,0.1,0,0.2,0l-3.5,2C83.6,143.6,83.6,143.6,83.5,143.6"/>
		<path class="st7" d="M83.7,143.6l3.5-2c0.1,0,0.1,0,0.2,0l-3.5,2C83.8,143.6,83.8,143.6,83.7,143.6"/>
		<path class="st8" d="M83.9,143.6l3.5-2c0.1,0,0.1,0,0.2,0l-3.5,2C84,143.6,83.9,143.6,83.9,143.6"/>
		<path class="st9" d="M84,143.6l3.5-2c0,0,0.1,0,0.2,0l-3.5,2C84.1,143.6,84.1,143.6,84,143.6"/>
		<path class="st10" d="M84.2,143.6l3.5-2c0,0,0.1,0,0.1,0c0,0,0,0,0,0l-3.5,2c0,0,0,0,0,0C84.3,143.6,84.2,143.6,84.2,143.6"/>
		<path class="st11" d="M84.3,143.6l3.5-2c0,0,0.1,0,0.1,0l-3.5,2C84.4,143.6,84.4,143.6,84.3,143.6"/>
		<path class="st12" d="M84.5,143.6l3.5-2c0,0,0.1,0,0.1,0l-3.5,2C84.6,143.6,84.5,143.6,84.5,143.6"/>
		<path class="st13" d="M84.6,143.7l3.5-2c0,0,0.1,0,0.1,0l-3.5,2C84.7,143.7,84.7,143.7,84.6,143.7"/>
		<path class="st14" d="M84.7,143.7l3.5-2c0,0,0.1,0,0.1,0l-3.5,2C84.8,143.7,84.8,143.7,84.7,143.7"/>
		<path class="st15" d="M84.9,143.7l3.5-2c0,0,0.1,0,0.1,0.1l-3.5,2C85,143.8,84.9,143.8,84.9,143.7"/>
		<path class="st16" d="M85,143.8l3.5-2c0,0,0.1,0,0.1,0.1l-3.5,2C85.1,143.8,85.1,143.8,85,143.8"/>
		<path class="st17" d="M85.1,143.9l3.5-2c0,0,0.1,0.1,0.1,0.1l-3.5,2C85.2,143.9,85.2,143.9,85.1,143.9"/>
		<path class="st18" d="M85.3,143.9l3.5-2c0.1,0,0.1,0.1,0.2,0.1l-3.5,2C85.4,144,85.3,144,85.3,143.9"/>
		<path class="st19" d="M85.4,144l3.5-2c0.1,0,0.1,0.1,0.2,0.1l-3.5,2C85.6,144.1,85.5,144.1,85.4,144"/>
		<path class="st20" d="M85.6,144.2l3.5-2c0.1,0.1,0.2,0.1,0.2,0.2l-3.5,2C85.8,144.3,85.7,144.2,85.6,144.2"/>
		<path class="st21" d="M85.8,144.4l3.5-2c0.1,0.1,0.2,0.2,0.3,0.3c0.3,0.4,0.7,0.8,1,1.2l-3.5,2c-0.3-0.4-0.7-0.8-1-1.2
			C86.1,144.6,86,144.5,85.8,144.4"/>
		<path class="st22" d="M87.2,145.9l3.5-2c2.2,2.8,4.1,5.9,6,8.8c1.1,1.6,2.2,3.2,3.2,4.8l-3.5,2c-1.1-1.6-2.2-3.2-3.2-4.8
			C91.2,151.8,89.4,148.7,87.2,145.9"/>
	</g>
	<g>
		<defs>
			<path id="SVGID_3_" d="M131.3,120l-3.5,2c1.6-0.9,3.3-1.6,5.2-1.4l3.5-2c-0.3,0-0.6-0.1-0.8-0.1
				C134.1,118.6,132.7,119.2,131.3,120"/>
		</defs>
		<clipPath id="SVGID_4_">
			<use xlink:href="#SVGID_3_"  style="overflow:visible;"/>
		</clipPath>
		<path class="st23" d="M127.9,122l3.5-2c0.6-0.3,1.1-0.6,1.7-0.9l-3.5,2C129,121.3,128.4,121.6,127.9,122"/>
		<path class="st24" d="M129.6,121.1l3.5-2c0.3-0.1,0.6-0.2,0.9-0.3l-3.5,2C130.2,120.9,129.9,121,129.6,121.1"/>
		<path class="st25" d="M130.6,120.8l3.5-2c0.2-0.1,0.4-0.1,0.6-0.1l-3.5,2C131,120.7,130.8,120.7,130.6,120.8"/>
		<path class="st26" d="M131.2,120.6l3.5-2c0.2,0,0.3-0.1,0.5-0.1l-3.5,2C131.5,120.6,131.3,120.6,131.2,120.6"/>
		<path class="st27" d="M131.7,120.6l3.5-2c0.1,0,0.3,0,0.4,0l-3.5,2C132,120.6,131.8,120.6,131.7,120.6"/>
		<path class="st28" d="M132.1,120.5l3.5-2c0.1,0,0.3,0,0.4,0l-3.5,2C132.3,120.5,132.2,120.5,132.1,120.5"/>
		<path class="st29" d="M132.5,120.5l3.5-2c0.1,0,0.2,0,0.4,0l-3.5,2C132.7,120.6,132.6,120.5,132.5,120.5"/>
		<path class="st30" d="M132.8,120.6l3.5-2c0.1,0,0.2,0,0.3,0l-3.5,2C133,120.6,132.9,120.6,132.8,120.6"/>
	</g>
	<g>
		<defs>
			<path id="SVGID_5_" d="M133.1,120.6c0.1,0,0.3,0,0.4,0.1c0.8,0.2,1.6,0.6,2.1,1.3c0.8,0.9,1.2,2,1.5,3.2c0.8,3.9-1.2,7.6-3.8,9.7
				c-2.9,2.4-6,4.4-8.9,6.8c-3.6,3-6.3,5.7-9.3,9.4c-6.2,7.6-10.2,14.7-13.8,24.2c-0.4,1.2-1.1,2-1.9,2.4l3.5-2
				c0.8-0.4,1.4-1.2,1.9-2.4c3.6-9.5,7.6-16.6,13.8-24.2c3-3.7,5.7-6.4,9.3-9.4c2.9-2.4,6-4.4,8.9-6.8c2.6-2.1,4.6-5.8,3.8-9.7
				c-0.2-1.1-0.7-2.2-1.5-3.2c-0.5-0.7-1.3-1.1-2.1-1.3c-0.1,0-0.3-0.1-0.4-0.1L133.1,120.6z"/>
		</defs>
		<clipPath id="SVGID_6_">
			<use xlink:href="#SVGID_5_"  style="overflow:visible;"/>
		</clipPath>
		<path class="st31" d="M133.1,120.6l3.5-2c0,0,0,0,0.1,0L133.1,120.6C133.2,120.6,133.1,120.6,133.1,120.6"/>
		<path class="st32" d="M133.2,120.6l3.5-2c0.1,0,0.2,0,0.3,0.1l-3.5,2C133.4,120.6,133.3,120.6,133.2,120.6"/>
		<path class="st33" d="M133.5,120.7l3.5-2c0,0,0,0,0,0c0.1,0,0.1,0,0.2,0l-3.5,2C133.6,120.7,133.6,120.7,133.5,120.7
			C133.5,120.7,133.5,120.7,133.5,120.7"/>
		<path class="st34" d="M133.7,120.7l3.5-2c0.1,0,0.1,0,0.2,0.1l-3.5,2C133.8,120.7,133.8,120.7,133.7,120.7"/>
		<path class="st35" d="M133.9,120.8l3.5-2c0.1,0,0.1,0,0.2,0.1l-3.5,2C134,120.8,133.9,120.8,133.9,120.8"/>
		<path class="st36" d="M134.1,120.8l3.5-2c0.1,0,0.1,0,0.2,0.1l-3.5,2C134.2,120.9,134.1,120.8,134.1,120.8"/>
		<path class="st37" d="M134.2,120.9l3.5-2c0.1,0,0.1,0.1,0.2,0.1l-3.5,2C134.4,121,134.3,120.9,134.2,120.9"/>
		<path class="st38" d="M134.4,121l3.5-2c0.1,0,0.1,0.1,0.2,0.1l-3.5,2C134.6,121.1,134.5,121,134.4,121"/>
		<path class="st39" d="M134.6,121.1l3.5-2c0.1,0,0.1,0.1,0.2,0.1l-3.5,2C134.8,121.2,134.7,121.1,134.6,121.1"/>
		<path class="st40" d="M134.8,121.2l3.5-2c0.1,0,0.1,0.1,0.2,0.2l-3.5,2C135,121.3,134.9,121.3,134.8,121.2"/>
		<path class="st41" d="M135,121.4l3.5-2c0.1,0.1,0.2,0.1,0.2,0.2l-3.5,2C135.2,121.5,135.1,121.4,135,121.4"/>
		<path class="st42" d="M135.3,121.6l3.5-2c0.1,0.1,0.2,0.2,0.3,0.4l0.1,0.1l-3.5,2c0,0,0-0.1-0.1-0.1
			C135.5,121.8,135.4,121.7,135.3,121.6"/>
		<path class="st43" d="M135.7,122l3.5-2c0.1,0.2,0.3,0.4,0.4,0.6l-3.5,2C136,122.4,135.8,122.2,135.7,122"/>
		<path class="st42" d="M136.1,122.6l3.5-2c0.2,0.3,0.4,0.7,0.5,1l-3.5,2C136.5,123.3,136.3,122.9,136.1,122.6"/>
		<path class="st41" d="M136.6,123.6l3.5-2c0.1,0.2,0.2,0.4,0.2,0.6l-3.5,2C136.8,124,136.7,123.8,136.6,123.6"/>
		<path class="st40" d="M136.8,124.2l3.5-2c0.1,0.2,0.1,0.3,0.2,0.5l-3.5,2C137,124.5,136.9,124.4,136.8,124.2"/>
		<path class="st39" d="M137,124.7l3.5-2c0,0.1,0.1,0.3,0.1,0.4c0,0,0,0.1,0,0.1l-3.5,2c0,0,0-0.1,0-0.1
			C137.1,125,137,124.8,137,124.7"/>
		<path class="st38" d="M137.1,125.2l3.5-2c0,0.2,0.1,0.3,0.1,0.5l-3.5,2C137.2,125.5,137.1,125.4,137.1,125.2"/>
		<path class="st37" d="M137.2,125.7l3.5-2c0,0.2,0,0.3,0,0.4l-3.5,2C137.2,126,137.2,125.9,137.2,125.7"/>
		<path class="st36" d="M137.2,126.2l3.5-2c0,0.1,0,0.3,0,0.4l-3.5,2C137.3,126.4,137.3,126.3,137.2,126.2"/>
		<path class="st35" d="M137.3,126.6l3.5-2c0,0.1,0,0.3,0,0.4l-3.5,2C137.3,126.9,137.3,126.7,137.3,126.6"/>
		<path class="st34" d="M137.3,127l3.5-2c0,0.1,0,0.3,0,0.4l-3.5,2C137.3,127.3,137.3,127.2,137.3,127"/>
		<path class="st33" d="M137.3,127.5l3.5-2c0,0.2,0,0.3,0,0.4l-3.5,2C137.2,127.8,137.3,127.6,137.3,127.5"/>
		<path class="st32" d="M137.2,127.9l3.5-2c0,0.2,0,0.3-0.1,0.5l-3.5,2C137.2,128.2,137.2,128.1,137.2,127.9"/>
		<path class="st31" d="M137.2,128.4l3.5-2c0,0.2-0.1,0.3-0.1,0.5l-3.5,2C137.1,128.7,137.1,128.5,137.2,128.4"/>
		<path class="st44" d="M137.1,128.9l3.5-2c0,0.2-0.1,0.3-0.1,0.5l-3.5,2C137,129.2,137,129,137.1,128.9"/>
		<path class="st45" d="M136.9,129.4l3.5-2c-0.1,0.2-0.1,0.4-0.2,0.6l-3.5,2C136.8,129.8,136.9,129.6,136.9,129.4"/>
		<path class="st46" d="M136.8,129.9l3.5-2c-0.1,0.2-0.2,0.4-0.2,0.6l-3.5,2C136.6,130.4,136.7,130.2,136.8,129.9"/>
		<path class="st47" d="M136.5,130.6l3.5-2c-0.1,0.2-0.2,0.5-0.3,0.7l-3.5,2C136.3,131,136.4,130.8,136.5,130.6"/>
		<path class="st48" d="M136.2,131.3l3.5-2c-0.1,0.3-0.3,0.5-0.5,0.8l-3.5,2C135.9,131.8,136,131.5,136.2,131.3"/>
		<path class="st49" d="M135.7,132.1l3.5-2c-0.2,0.4-0.5,0.7-0.7,1l-3.5,2C135.3,132.8,135.5,132.4,135.7,132.1"/>
		<path class="st50" d="M135,133.1l3.5-2c-0.5,0.7-1.1,1.2-1.7,1.7c-2.9,2.4-6,4.4-8.9,6.8c-3.6,3-6.3,5.7-9.3,9.4
			c-0.4,0.5-0.9,1.1-1.3,1.6l-3.5,2c0.4-0.5,0.9-1.1,1.3-1.6c3-3.7,5.7-6.4,9.3-9.4c2.9-2.4,6-4.4,8.9-6.8
			C133.9,134.3,134.5,133.8,135,133.1"/>
		<path class="st49" d="M113.8,152.7l3.5-2c-1.9,2.4-3.5,4.8-5.1,7.2l-3.5,2C110.3,157.5,112,155.1,113.8,152.7"/>
		<path class="st48" d="M108.8,159.9l3.5-2c-1.1,1.8-2.2,3.7-3.2,5.7l-3.5,2C106.6,163.6,107.6,161.8,108.8,159.9"/>
		<path class="st47" d="M105.6,165.6l3.5-2c-1,1.9-1.9,3.9-2.7,5.9l-3.5,2C103.7,169.4,104.6,167.5,105.6,165.6"/>
		<path class="st46" d="M102.8,171.5l3.5-2c-0.5,1.2-1,2.5-1.5,3.8c0,0.1-0.1,0.1-0.1,0.2l-3.5,2c0-0.1,0.1-0.1,0.1-0.2
			C101.8,174,102.3,172.7,102.8,171.5"/>
		<path class="st47" d="M101.2,175.5l3.5-2c-0.1,0.1-0.1,0.3-0.2,0.4l-3.5,2C101.1,175.8,101.2,175.6,101.2,175.5"/>
		<path class="st48" d="M101.1,175.9l3.5-2c-0.1,0.1-0.1,0.3-0.2,0.4l-3.5,2C100.9,176.2,101,176,101.1,175.9"/>
		<path class="st49" d="M100.8,176.3l3.5-2c-0.1,0.2-0.2,0.3-0.3,0.4l-3.5,2C100.6,176.6,100.7,176.4,100.8,176.3"/>
		<path class="st50" d="M100.5,176.7l3.5-2c-0.3,0.4-0.7,0.7-1.1,1l-3.5,2C99.8,177.4,100.2,177.1,100.5,176.7"/>
	</g>
	<g>
		<defs>
			<path id="SVGID_7_" d="M126.3,122.9c-6.6,4.2-12.5,9.8-17.5,15.9c-5.1,6.2-9.2,13.2-12.4,20.7l-0.5,2.7
				c3.8-9.1,7.9-16.1,12.9-22.1c5-6.1,10.8-11.6,17.3-15.7c2-1.2,4-2.5,6.2-2.2l0.8-1.6c-0.3,0-0.5-0.1-0.8-0.1
				C130.1,120.5,128.1,121.8,126.3,122.9"/>
		</defs>
		<clipPath id="SVGID_8_">
			<use xlink:href="#SVGID_7_"  style="overflow:visible;"/>
		</clipPath>
		<path class="st51" d="M95.9,162.2l0.5-2.7c3.2-7.6,7.3-14.6,12.4-20.7c2.6-3.1,5.4-6.2,8.4-8.9l-0.1,1.4c-3,2.7-5.7,5.7-8.3,8.8
			C103.8,146.1,99.8,153,95.9,162.2"/>
		<path class="st52" d="M117.2,131.2l0.1-1.4c2.1-1.9,4.3-3.7,6.6-5.3l-0.2,1.4C121.4,127.5,119.3,129.3,117.2,131.2"/>
		<path class="st53" d="M123.7,125.9l0.2-1.4c0.8-0.6,1.6-1.1,2.5-1.6c0.6-0.4,1.1-0.7,1.7-1l-0.3,1.5c-0.6,0.3-1.1,0.7-1.6,1
			C125.3,124.9,124.5,125.4,123.7,125.9"/>
		<path class="st54" d="M127.8,123.3l0.3-1.5c0.4-0.2,0.8-0.4,1.1-0.6l-0.3,1.5C128.5,123,128.1,123.1,127.8,123.3"/>
		<path class="st55" d="M128.9,122.8l0.3-1.5c0.2-0.1,0.5-0.2,0.7-0.3l-0.4,1.5C129.3,122.6,129.1,122.7,128.9,122.8"/>
		<path class="st56" d="M129.5,122.5l0.4-1.5c0.2-0.1,0.4-0.1,0.6-0.2l-0.5,1.6C129.8,122.4,129.7,122.5,129.5,122.5"/>
		<path class="st57" d="M130,122.4l0.5-1.6c0.2,0,0.3-0.1,0.5-0.1l-0.5,1.6C130.3,122.3,130.1,122.3,130,122.4"/>
		<path class="st58" d="M130.4,122.3l0.5-1.6c0.1,0,0.3-0.1,0.4-0.1l-0.6,1.6C130.7,122.2,130.5,122.2,130.4,122.3"/>
		<path class="st59" d="M130.8,122.2l0.6-1.6c0.1,0,0.2,0,0.4,0l-0.6,1.6C131,122.2,130.9,122.2,130.8,122.2"/>
		<path class="st60" d="M131.1,122.1l0.6-1.6c0.1,0,0.2,0,0.3,0l-0.6,1.6C131.3,122.1,131.2,122.1,131.1,122.1"/>
		<path class="st61" d="M131.4,122.1l0.6-1.6c0.1,0,0.2,0,0.3,0l-0.7,1.6C131.6,122.1,131.5,122.1,131.4,122.1"/>
		<path class="st62" d="M131.7,122.1l0.7-1.6c0.1,0,0.2,0,0.3,0l-0.7,1.6C131.9,122.1,131.8,122.1,131.7,122.1"/>
		<path class="st63" d="M131.9,122.1l0.7-1.6c0.1,0,0.2,0,0.3,0l-0.8,1.6C132.1,122.1,132,122.1,131.9,122.1"/>
		<path class="st64" d="M132.2,122.1l0.8-1.6c0,0,0.1,0,0.1,0l-0.8,1.6C132.3,122.2,132.2,122.2,132.2,122.1"/>
	</g>
	<g>
		<defs>
			<path id="SVGID_9_" d="M132.3,122.2c0.1,0,0.3,0.1,0.4,0.1c0.5,0.1,1.1,0.4,1.4,0.9c0.6,0.8,1,1.7,1.2,2.6
				c0.7,3.4-1.1,6.7-3.5,8.7c-2.8,2.4-6,4.4-8.9,6.8c-3.7,3-6.3,5.7-9.4,9.5c-6.3,7.6-10.3,14.7-14,24.5c-0.6,1.7-1.8,2.3-2.8,2.2
				c-0.8-0.1-1.8-0.7-2.5-2c-2.5-4.2-5-8.4-7.5-12.6c-3.1-5.2-8.3-11.6-5.2-16.5c0.5-0.8,1.3-1.2,2-1.1c0.4,0.1,0.8,0.3,1.1,0.7
				c2.5,3,4.7,6.5,7,9.9c1.1,1.6,2.2,3.2,4.3,6.4l0.5-2.7c-1.1-1.6-2.2-3.2-3.2-4.8c-2.3-3.4-4.4-6.9-7-10c-0.6-0.7-1.2-1-1.9-1.1
				c-1.1-0.2-2.3,0.5-2.9,1.5c-3.5,5.7,2.1,12.6,5.2,17.7c2.5,4.2,5,8.4,7.5,12.6c0.9,1.6,2.2,2.5,3.4,2.6c1.5,0.2,3-0.7,3.8-2.8
				c3.6-9.5,7.6-16.6,13.8-24.2c3-3.7,5.7-6.4,9.3-9.4c2.9-2.4,6-4.4,8.9-6.8c2.6-2.1,4.6-5.8,3.8-9.7c-0.2-1.1-0.7-2.2-1.5-3.2
				c-0.5-0.7-1.3-1.1-2.1-1.3c-0.1,0-0.3-0.1-0.4-0.1L132.3,122.2z"/>
		</defs>
		<clipPath id="SVGID_10_">
			<use xlink:href="#SVGID_9_"  style="overflow:visible;"/>
		</clipPath>
		<path class="st65" d="M132.3,122.2l0.8-1.6l0.1,0L132.3,122.2C132.3,122.2,132.3,122.2,132.3,122.2"/>
		<path class="st66" d="M132.4,122.2l0.8-1.6c0.1,0,0.2,0,0.3,0l-0.8,1.6C132.5,122.2,132.4,122.2,132.4,122.2"/>
		<path class="st65" d="M132.6,122.2l0.8-1.6c0,0,0.1,0,0.1,0L132.6,122.2C132.6,122.2,132.6,122.2,132.6,122.2"/>
		<path class="st66" d="M132.7,122.2l0.9-1.6c0,0,0,0,0,0c0,0,0,0,0,0L132.7,122.2C132.7,122.2,132.7,122.2,132.7,122.2
			C132.7,122.2,132.7,122.2,132.7,122.2"/>
		<path class="st67" d="M132.7,122.2l0.9-1.6c0.1,0,0.1,0,0.2,0l-0.9,1.5C132.8,122.2,132.7,122.2,132.7,122.2"/>
		<path class="st68" d="M132.8,122.3l0.9-1.5c0.1,0,0.1,0,0.2,0l-1,1.5C132.9,122.3,132.8,122.3,132.8,122.3"/>
		<path class="st69" d="M132.9,122.3l1-1.5c0.1,0,0.1,0,0.2,0.1l-1,1.5C133,122.3,132.9,122.3,132.9,122.3"/>
		<path class="st70" d="M133,122.3l1-1.5c0.1,0,0.1,0,0.2,0.1l-1.1,1.5C133.1,122.4,133.1,122.3,133,122.3"/>
		<path class="st71" d="M133.1,122.4l1.1-1.5c0,0,0.1,0,0.1,0.1l-1.1,1.5C133.2,122.4,133.2,122.4,133.1,122.4"/>
		<path class="st72" d="M133.2,122.4l1.1-1.5c0,0,0.1,0,0.1,0.1L133.2,122.4C133.3,122.4,133.3,122.4,133.2,122.4"/>
		<path class="st73" d="M133.3,122.5l1.2-1.4c0,0,0.1,0,0.1,0.1L133.3,122.5C133.4,122.5,133.4,122.5,133.3,122.5"/>
		<path class="st74" d="M133.4,122.5l1.2-1.4c0,0,0.1,0,0.1,0.1L133.4,122.5C133.5,122.5,133.4,122.5,133.4,122.5"/>
		<path class="st75" d="M133.5,122.6l1.2-1.4c0,0,0.1,0,0.1,0.1L133.5,122.6C133.5,122.6,133.5,122.6,133.5,122.6"/>
		<path class="st76" d="M133.5,122.6l1.3-1.4c0,0,0.1,0,0.1,0.1L133.5,122.6C133.6,122.6,133.6,122.6,133.5,122.6"/>
		<path class="st77" d="M133.6,122.6l1.3-1.4c0,0,0.1,0,0.1,0.1L133.6,122.6C133.6,122.7,133.6,122.6,133.6,122.6"/>
		<path class="st78" d="M133.7,122.7l1.3-1.3c0,0,0,0,0.1,0.1L133.7,122.7C133.7,122.7,133.7,122.7,133.7,122.7"/>
		<path class="st79" d="M133.7,122.7l1.3-1.3c0,0,0,0,0.1,0.1L133.7,122.7C133.7,122.7,133.7,122.7,133.7,122.7"/>
		<path class="st80" d="M133.8,122.7l1.4-1.3c0,0,0,0,0.1,0.1L133.8,122.7C133.8,122.8,133.8,122.8,133.8,122.7"/>
		<path class="st81" d="M133.8,122.8l1.4-1.3c0,0,0,0,0.1,0.1L133.8,122.8C133.8,122.8,133.8,122.8,133.8,122.8"/>
		<path class="st82" d="M133.8,122.8l1.4-1.3c0,0,0,0,0.1,0.1L133.8,122.8C133.9,122.8,133.8,122.8,133.8,122.8"/>
		<path class="st83" d="M133.9,122.8l1.4-1.3c0,0,0,0,0.1,0.1L133.9,122.8C133.9,122.9,133.9,122.9,133.9,122.8"/>
		<path class="st84" d="M133.9,122.9l1.4-1.2c0,0,0,0,0.1,0.1L133.9,122.9C133.9,122.9,133.9,122.9,133.9,122.9"/>
		<path class="st85" d="M133.9,122.9l1.5-1.2c0,0,0,0,0.1,0.1L133.9,122.9C134,122.9,134,122.9,133.9,122.9"/>
		<path class="st86" d="M134,122.9l1.5-1.2c0,0,0,0,0.1,0.1L134,122.9C134,123,134,123,134,122.9"/>
		<path class="st87" d="M134,123l1.5-1.2c0,0,0,0,0.1,0.1L134,123C134,123,134,123,134,123"/>
		<path class="st88" d="M134.1,123l1.5-1.2c0,0,0,0.1,0.1,0.1L134.1,123C134.1,123.1,134.1,123,134.1,123"/>
		<path class="st89" d="M134.1,123.1l1.5-1.1c0,0,0,0,0,0c0.1,0.1,0.1,0.2,0.2,0.2l-1.6,1.1C134.2,123.2,134.1,123.1,134.1,123.1
			L134.1,123.1"/>
		<path class="st90" d="M134.2,123.3l1.6-1.1c0.1,0.2,0.3,0.4,0.4,0.6l-1.7,1C134.5,123.6,134.4,123.4,134.2,123.3"/>
		<path class="st89" d="M134.6,123.8l1.7-1c0,0.1,0.1,0.2,0.1,0.3l-1.7,0.9C134.6,123.9,134.6,123.8,134.6,123.8"/>
		<path class="st88" d="M134.7,124l1.7-0.9c0,0.1,0.1,0.1,0.1,0.2l-1.7,0.9C134.7,124.1,134.7,124,134.7,124"/>
		<path class="st87" d="M134.8,124.1l1.7-0.9c0,0.1,0.1,0.1,0.1,0.2l-1.7,0.9C134.8,124.2,134.8,124.2,134.8,124.1"/>
		<path class="st86" d="M134.8,124.2l1.7-0.9c0,0,0,0.1,0.1,0.1l-1.7,0.8C134.9,124.3,134.8,124.3,134.8,124.2"/>
		<path class="st85" d="M134.9,124.4l1.7-0.8c0,0,0,0.1,0.1,0.1l-1.7,0.8C134.9,124.4,134.9,124.4,134.9,124.4"/>
		<path class="st84" d="M134.9,124.5l1.7-0.8c0,0,0,0.1,0.1,0.1l-1.7,0.8C135,124.6,134.9,124.5,134.9,124.5"/>
		<path class="st83" d="M135,124.6l1.7-0.8c0,0,0,0.1,0.1,0.1l-1.8,0.8C135,124.7,135,124.6,135,124.6"/>
		<path class="st82" d="M135,124.7l1.8-0.8c0,0,0,0.1,0.1,0.1l-1.8,0.7C135,124.8,135,124.8,135,124.7"/>
		<path class="st81" d="M135.1,124.8l1.8-0.7c0,0,0,0.1,0,0.1l-1.8,0.7C135.1,124.9,135.1,124.9,135.1,124.8"/>
		<path class="st80" d="M135.1,125l1.8-0.7c0,0,0,0.1,0,0.2l-1.8,0.7C135.1,125,135.1,125,135.1,125"/>
		<path class="st79" d="M135.1,125.1l1.8-0.7c0,0.1,0,0.1,0,0.2l-1.8,0.7C135.2,125.2,135.1,125.1,135.1,125.1"/>
		<path class="st78" d="M135.2,125.2l1.8-0.7c0,0.1,0,0.1,0,0.2l-1.8,0.6C135.2,125.3,135.2,125.3,135.2,125.2"/>
		<path class="st77" d="M135.2,125.3l1.8-0.6c0,0.1,0,0.1,0,0.2l-1.8,0.6C135.2,125.4,135.2,125.4,135.2,125.3"/>
		<path class="st76" d="M135.2,125.5l1.8-0.6c0,0.1,0,0.1,0,0.2l-1.8,0.6C135.3,125.6,135.3,125.6,135.2,125.5"/>
		<path class="st75" d="M135.3,125.7l1.8-0.6l0,0c0,0.1,0,0.1,0,0.2l-1.8,0.5C135.3,125.8,135.3,125.7,135.3,125.7L135.3,125.7"/>
		<path class="st74" d="M135.3,125.9l1.8-0.5c0,0.1,0,0.2,0,0.2l-1.8,0.5C135.3,126,135.3,125.9,135.3,125.9"/>
		<path class="st73" d="M135.4,126.1l1.8-0.5c0,0.1,0,0.2,0,0.3l-1.8,0.5C135.4,126.2,135.4,126.2,135.4,126.1"/>
		<path class="st72" d="M135.4,126.3l1.8-0.5c0,0.1,0,0.2,0,0.3l-1.8,0.4C135.4,126.5,135.4,126.4,135.4,126.3"/>
		<path class="st71" d="M135.4,126.5l1.8-0.4c0,0.1,0,0.2,0,0.3l-1.8,0.4C135.4,126.7,135.4,126.6,135.4,126.5"/>
		<path class="st70" d="M135.4,126.8l1.8-0.4c0,0.1,0,0.2,0,0.3l-1.8,0.4C135.4,127,135.4,126.9,135.4,126.8"/>
		<path class="st69" d="M135.4,127.1l1.8-0.4c0,0.1,0,0.2,0,0.3l-1.8,0.3C135.4,127.3,135.4,127.2,135.4,127.1"/>
		<path class="st68" d="M135.4,127.4l1.8-0.3c0,0.1,0,0.2,0,0.4l-1.8,0.3C135.4,127.6,135.4,127.5,135.4,127.4"/>
		<path class="st67" d="M135.4,127.7l1.8-0.3c0,0.1,0,0.3,0,0.4l-1.8,0.2C135.4,127.9,135.4,127.8,135.4,127.7"/>
		<path class="st66" d="M135.4,128l1.8-0.2c0,0.1,0,0.3-0.1,0.4l-1.8,0.2C135.4,128.3,135.4,128.2,135.4,128"/>
		<path class="st65" d="M135.4,128.4l1.8-0.2c0,0.1,0,0.3-0.1,0.4l-1.8,0.1C135.3,128.7,135.3,128.5,135.4,128.4"/>
		<path class="st91" d="M135.3,128.8l1.8-0.1c0,0.1-0.1,0.3-0.1,0.4l-1.8,0.1C135.2,129,135.3,128.9,135.3,128.8"/>
		<path class="st92" d="M135.2,129.2l1.8-0.1c0,0.2-0.1,0.3-0.1,0.5l-1.8,0C135.1,129.4,135.2,129.3,135.2,129.2"/>
		<path class="st93" d="M135.1,129.6l1.8,0c0,0.2-0.1,0.3-0.2,0.5l-1.8,0C135,129.9,135,129.7,135.1,129.6"/>
		<path class="st94" d="M134.9,130l1.8,0c-0.1,0.2-0.1,0.3-0.2,0.5l-1.8-0.1C134.8,130.3,134.9,130.2,134.9,130"/>
		<path class="st95" d="M134.8,130.5l1.8,0.1c-0.1,0.2-0.2,0.4-0.2,0.5l-1.7-0.1C134.6,130.8,134.7,130.6,134.8,130.5"/>
		<path class="st96" d="M134.5,130.9l1.7,0.1c-0.1,0.2-0.2,0.4-0.3,0.6l-1.7-0.2C134.4,131.3,134.5,131.1,134.5,130.9"/>
		<path class="st97" d="M134.3,131.4l1.7,0.2c-0.1,0.2-0.2,0.4-0.4,0.6L134,132C134.1,131.8,134.2,131.6,134.3,131.4"/>
		<path class="st98" d="M134,132l1.7,0.2c-0.1,0.2-0.3,0.4-0.4,0.6l-1.7-0.3C133.7,132.4,133.8,132.2,134,132"/>
		<path class="st99" d="M133.6,132.5l1.7,0.3c-0.2,0.2-0.4,0.5-0.5,0.7l-1.6-0.4C133.2,133,133.4,132.8,133.6,132.5"/>
		<path class="st100" d="M133.1,133.2l1.6,0.4c-0.2,0.2-0.4,0.5-0.7,0.7l-1.5-0.4C132.7,133.6,132.9,133.4,133.1,133.2"/>
		<path class="st101" d="M132.5,133.8l1.5,0.4c-0.2,0.2-0.5,0.4-0.7,0.6c-0.2,0.2-0.5,0.4-0.7,0.6l-1.5-0.5c0.2-0.2,0.5-0.4,0.7-0.6
			C132,134.2,132.2,134,132.5,133.8"/>
		<path class="st102" d="M131.1,135l1.5,0.5c-2.4,2-5,3.7-7.4,5.7l-1.5-0.5C126.1,138.7,128.7,136.9,131.1,135"/>
		<path class="st101" d="M123.7,140.6l1.5,0.5c-0.2,0.2-0.5,0.4-0.7,0.6c-1.4,1.2-2.7,2.3-3.9,3.5l-1.6-0.4c1.2-1.2,2.5-2.3,3.9-3.5
			C123.2,141,123.4,140.8,123.7,140.6"/>
		<path class="st100" d="M119,144.7l1.6,0.4c-1.2,1.2-2.4,2.4-3.6,3.7l-1.6-0.4C116.6,147.1,117.7,145.9,119,144.7"/>
		<path class="st99" d="M115.4,148.5l1.6,0.4c-0.6,0.7-1.2,1.4-1.9,2.2c-1,1.2-1.9,2.3-2.7,3.5l-1.6-0.3c0.9-1.2,1.8-2.3,2.8-3.5
			C114.2,149.9,114.8,149.2,115.4,148.5"/>
		<path class="st98" d="M110.8,154.3l1.6,0.3c-1,1.4-2,2.8-2.9,4.2l-1.7-0.3C108.8,157,109.7,155.7,110.8,154.3"/>
		<path class="st97" d="M107.8,158.5l1.7,0.3c-0.8,1.3-1.6,2.5-2.3,3.8l-1.7-0.3C106.2,161,107,159.7,107.8,158.5"/>
		<path class="st96" d="M105.5,162.3l1.7,0.3c-0.7,1.3-1.4,2.6-2.1,3.9l-1.7-0.2C104,164.9,104.8,163.6,105.5,162.3"/>
		<path class="st95" d="M103.4,166.3l1.7,0.2c-0.7,1.5-1.4,3-2.1,4.6l-1.8-0.2C101.9,169.3,102.6,167.8,103.4,166.3"/>
		<path class="st94" d="M101.3,170.9l1.8,0.2c-0.6,1.3-1.1,2.7-1.7,4.2c0,0.1-0.1,0.1-0.1,0.2l-1.7-0.1c0-0.1,0-0.1,0.1-0.2
			C100.1,173.7,100.7,172.3,101.3,170.9"/>
		<path class="st95" d="M99.5,175.4l1.7,0.1c0,0.1-0.1,0.2-0.1,0.3l-1.7-0.2C99.4,175.5,99.5,175.4,99.5,175.4"/>
		<path class="st96" d="M99.4,175.6l1.7,0.2c0,0.1-0.1,0.2-0.2,0.3l-1.7-0.2C99.3,175.8,99.3,175.7,99.4,175.6"/>
		<path class="st97" d="M99.3,175.8l1.7,0.2c-0.1,0.1-0.1,0.2-0.2,0.3l-1.7-0.3C99.2,176,99.2,175.9,99.3,175.8"/>
		<path class="st98" d="M99.1,176.1l1.7,0.3c-0.1,0.1-0.1,0.2-0.2,0.3l-1.6-0.3C99,176.2,99.1,176.1,99.1,176.1"/>
		<path class="st99" d="M99,176.3l1.6,0.3c-0.1,0.1-0.1,0.2-0.2,0.3l-1.6-0.4C98.9,176.4,98.9,176.4,99,176.3"/>
		<path class="st100" d="M98.8,176.5l1.6,0.4c-0.1,0.1-0.2,0.2-0.2,0.2l-1.5-0.5C98.7,176.6,98.8,176.6,98.8,176.5"/>
		<path class="st101" d="M98.6,176.7l1.5,0.5c-0.1,0.1-0.2,0.2-0.3,0.2l-1.4-0.5C98.5,176.8,98.6,176.8,98.6,176.7"/>
		<path class="st102" d="M98.4,176.9l1.4,0.5c-0.1,0.1-0.2,0.2-0.4,0.3l-1.4-0.6C98.3,177,98.3,176.9,98.4,176.9"/>
		<path class="st103" d="M98.2,177.1l1.4,0.6c-0.6,0.4-1.3,0.5-2,0.4c-1.2-0.2-2.4-1-3.4-2.6c-2.5-4.2-5-8.4-7.5-12.6
			c-3.1-5.2-8.7-12-5.2-17.7c0.2-0.3,0.4-0.5,0.6-0.8l-0.1,1.4c-0.2,0.2-0.3,0.3-0.5,0.6c-3.1,5,2.1,11.3,5.2,16.5
			c2.5,4.2,5,8.4,7.5,12.6c0.8,1.3,1.7,1.9,2.5,2C97.2,177.4,97.7,177.4,98.2,177.1"/>
		<path class="st102" d="M81.9,145.7l0.1-1.4c0.1-0.1,0.2-0.2,0.3-0.3l-0.2,1.4C82.1,145.6,82,145.7,81.9,145.7"/>
		<path class="st101" d="M82.2,145.5l0.2-1.4c0.1-0.1,0.2-0.1,0.3-0.2l-0.2,1.5C82.3,145.4,82.3,145.5,82.2,145.5"/>
		<path class="st100" d="M82.4,145.4l0.2-1.5c0.1,0,0.2-0.1,0.2-0.1l-0.3,1.5C82.5,145.3,82.4,145.4,82.4,145.4"/>
		<path class="st99" d="M82.5,145.3l0.3-1.5c0.1,0,0.1-0.1,0.2-0.1l-0.4,1.5C82.6,145.3,82.6,145.3,82.5,145.3"/>
		<path class="st98" d="M82.7,145.3l0.4-1.5c0.1,0,0.1,0,0.2-0.1l-0.4,1.5C82.8,145.2,82.7,145.2,82.7,145.3"/>
		<path class="st97" d="M82.8,145.2l0.4-1.5c0.1,0,0.1,0,0.2,0l-0.5,1.6C82.9,145.2,82.8,145.2,82.8,145.2"/>
		<path class="st96" d="M82.9,145.2l0.5-1.6c0.1,0,0.1,0,0.2,0l-0.5,1.6C83,145.2,83,145.2,82.9,145.2"/>
		<path class="st95" d="M83,145.2l0.5-1.6c0,0,0.1,0,0.1,0L83,145.2C83.1,145.2,83.1,145.2,83,145.2"/>
		<path class="st94" d="M83.1,145.2l0.6-1.6c0,0,0.1,0,0.1,0L83.1,145.2C83.2,145.2,83.2,145.2,83.1,145.2"/>
		<path class="st93" d="M83.2,145.2l0.6-1.6c0,0,0.1,0,0.1,0L83.2,145.2C83.3,145.2,83.3,145.2,83.2,145.2"/>
		<path class="st92" d="M83.3,145.1l0.7-1.6c0,0,0.1,0,0.1,0L83.3,145.1C83.4,145.2,83.3,145.1,83.3,145.1"/>
		<path class="st91" d="M83.4,145.2l0.7-1.6c0,0,0.1,0,0.1,0L83.4,145.2C83.5,145.2,83.4,145.2,83.4,145.2"/>
		<path class="st65" d="M83.5,145.2l0.8-1.6c0,0,0,0,0.1,0c0,0,0,0,0.1,0L83.5,145.2C83.5,145.2,83.5,145.2,83.5,145.2L83.5,145.2"
			/>
		<path class="st66" d="M83.6,145.2l0.8-1.6c0,0,0.1,0,0.1,0L83.6,145.2C83.6,145.2,83.6,145.2,83.6,145.2"/>
		<path class="st67" d="M83.6,145.2l0.9-1.6c0,0,0.1,0,0.1,0L83.6,145.2C83.7,145.2,83.7,145.2,83.6,145.2"/>
		<path class="st68" d="M83.7,145.2l0.9-1.5c0,0,0.1,0,0.1,0L83.7,145.2C83.7,145.2,83.7,145.2,83.7,145.2"/>
		<path class="st69" d="M83.8,145.2l1-1.5c0,0,0.1,0,0.1,0L83.8,145.2C83.8,145.2,83.8,145.2,83.8,145.2"/>
		<path class="st70" d="M83.8,145.2l1-1.5c0,0,0.1,0,0.1,0L83.8,145.2C83.9,145.3,83.9,145.3,83.8,145.2"/>
		<path class="st71" d="M83.9,145.3l1.1-1.5c0,0,0.1,0,0.1,0L83.9,145.3C83.9,145.3,83.9,145.3,83.9,145.3"/>
		<path class="st72" d="M84,145.3l1.1-1.5c0,0,0.1,0,0.1,0L84,145.3C84,145.3,84,145.3,84,145.3"/>
		<path class="st73" d="M84,145.3l1.1-1.5c0,0,0.1,0,0.1,0L84,145.3C84.1,145.3,84,145.3,84,145.3"/>
		<path class="st74" d="M84.1,145.4l1.2-1.4c0,0,0.1,0,0.1,0L84.1,145.4C84.1,145.4,84.1,145.4,84.1,145.4"/>
		<path class="st75" d="M84.1,145.4l1.2-1.4c0,0,0,0,0.1,0L84.1,145.4C84.2,145.4,84.1,145.4,84.1,145.4"/>
		<path class="st76" d="M84.2,145.4l1.2-1.4c0,0,0,0,0.1,0L84.2,145.4C84.2,145.4,84.2,145.4,84.2,145.4"/>
		<path class="st77" d="M84.2,145.4l1.3-1.4c0,0,0,0,0.1,0L84.2,145.4L84.2,145.4"/>
		<path class="st78" d="M84.3,145.5l1.3-1.4c0,0,0,0,0.1,0L84.3,145.5C84.3,145.5,84.3,145.5,84.3,145.5"/>
		<path class="st79" d="M84.3,145.5l1.3-1.3c0,0,0,0,0.1,0L84.3,145.5C84.3,145.5,84.3,145.5,84.3,145.5"/>
		<path class="st80" d="M84.3,145.5l1.3-1.3c0,0,0,0,0.1,0L84.3,145.5C84.4,145.6,84.3,145.5,84.3,145.5"/>
		<path class="st81" d="M84.4,145.6l1.4-1.3c0,0,0,0,0.1,0L84.4,145.6C84.4,145.6,84.4,145.6,84.4,145.6"/>
		<path class="st82" d="M84.4,145.6l1.4-1.3c0,0,0,0,0.1,0L84.4,145.6C84.4,145.6,84.4,145.6,84.4,145.6"/>
		<path class="st83" d="M84.4,145.6l1.4-1.3l0.1,0.1L84.4,145.6C84.5,145.6,84.4,145.6,84.4,145.6"/>
		<path class="st84" d="M84.5,145.7l1.4-1.3c0,0,0,0,0.1,0.1L84.5,145.7C84.5,145.7,84.5,145.7,84.5,145.7"/>
		<path class="st85" d="M84.5,145.7l1.4-1.2c0,0,0,0,0.1,0.1L84.5,145.7C84.5,145.7,84.5,145.7,84.5,145.7"/>
		<path class="st86" d="M84.5,145.7l1.5-1.2c0,0,0,0,0.1,0.1L84.5,145.7C84.6,145.8,84.6,145.7,84.5,145.7"/>
		<path class="st87" d="M84.6,145.8l1.5-1.2c0,0,0,0.1,0.1,0.1L84.6,145.8C84.6,145.8,84.6,145.8,84.6,145.8"/>
		<path class="st88" d="M84.6,145.8l1.5-1.2c0,0,0,0,0,0c0.2,0.2,0.4,0.5,0.6,0.7l-1.5,1.1C85,146.3,84.8,146.1,84.6,145.8
			C84.6,145.8,84.6,145.8,84.6,145.8"/>
		<path class="st89" d="M85.2,146.6l1.5-1.1c0.4,0.5,0.8,1.1,1.2,1.6l-1.6,1.1C86,147.6,85.6,147.1,85.2,146.6"/>
		<path class="st90" d="M86.4,148.1L88,147c1.8,2.5,3.5,5.1,5.2,7.7c1.1,1.6,2.2,3.2,3.2,4.8l-0.5,2.7c-2.2-3.2-3.3-4.8-4.3-6.4
			C89.9,153.2,88.2,150.6,86.4,148.1"/>
	</g>
	<g>
		<path class="st104" d="M132.3,122.2c0.1,0,0.3,0.1,0.4,0.1c0.5,0.1,1.1,0.4,1.4,0.9c0.6,0.8,1,1.7,1.2,2.6
			c0.7,3.4-1.1,6.7-3.5,8.7c-2.8,2.4-6,4.4-8.9,6.8c-3.7,3-6.3,5.7-9.4,9.5c-6.3,7.6-10.3,14.7-14,24.5c-0.6,1.7-1.8,2.3-2.8,2.2
			c-0.8-0.1-1.8-0.7-2.5-2c-2.5-4.2-5-8.4-7.5-12.6c-3.1-5.2-8.3-11.6-5.2-16.5c0.5-0.8,1.3-1.2,2-1.1c0.4,0.1,0.8,0.3,1.1,0.7
			c2.5,3,4.7,6.5,7,9.9c1.1,1.6,2.2,3.2,4.3,6.4c3.8-9.1,7.9-16.1,12.9-22.1c5-6.1,10.8-11.6,17.3-15.7
			C128.1,123.1,130.1,121.9,132.3,122.2"/>
	</g>
	<g>
		<defs>
			<path id="SVGID_11_" d="M302.8,137.7l-0.8-0.7c-1.4-0.2-2.6-1.5-2.6-3l-0.3-0.6C299.2,135.6,300.8,137.5,302.8,137.7"/>
		</defs>
		<clipPath id="SVGID_12_">
			<use xlink:href="#SVGID_11_"  style="overflow:visible;"/>
		</clipPath>
		<path class="st105" d="M302,137.1l0.8,0.7c-2-0.2-3.6-2.2-3.6-4.3l0.3,0.6C299.4,135.5,300.6,136.9,302,137.1"/>
	</g>
	<g>
		<polygon class="st106" points="305.7,137.5 306.4,138.2 302.8,137.7 302,137.1 		"/>
		<polygon class="st106" points="299.4,134 299.2,133.5 299.1,125.7 299.4,126.3 		"/>
	</g>
	<g>
		<defs>
			<path id="SVGID_13_" d="M304.1,120.8l-3.3,1.9c0.6-0.3,1.2-0.5,2-0.4l3.3-1.9c-0.1,0-0.3,0-0.4,0
				C305.1,120.4,304.6,120.5,304.1,120.8"/>
		</defs>
		<clipPath id="SVGID_14_">
			<use xlink:href="#SVGID_13_"  style="overflow:visible;"/>
		</clipPath>
		<path class="st107" d="M300.8,122.7l3.3-1.9c0.1-0.1,0.3-0.1,0.4-0.2l-3.3,1.9C301,122.6,300.9,122.6,300.8,122.7"/>
		<path class="st108" d="M301.2,122.5l3.3-1.9c0.1,0,0.2-0.1,0.3-0.1l-3.3,1.9C301.4,122.4,301.3,122.5,301.2,122.5"/>
		<path class="st109" d="M301.5,122.4l3.3-1.9c0.1,0,0.2,0,0.3-0.1l-3.3,1.9C301.7,122.4,301.6,122.4,301.5,122.4"/>
		<path class="st110" d="M301.8,122.3l3.3-1.9c0.1,0,0.2,0,0.2,0l-3.3,1.9C301.9,122.3,301.8,122.3,301.8,122.3"/>
		<path class="st111" d="M302,122.3l3.3-1.9c0.1,0,0.1,0,0.2,0l-3.3,1.9C302.1,122.3,302.1,122.3,302,122.3"/>
		<path class="st112" d="M302.2,122.3l3.3-1.9c0.1,0,0.1,0,0.2,0l-3.3,1.9C302.4,122.3,302.3,122.3,302.2,122.3"/>
		<path class="st113" d="M302.4,122.3l3.3-1.9c0.1,0,0.1,0,0.2,0l-3.3,1.9C302.6,122.3,302.5,122.3,302.4,122.3"/>
		<path class="st114" d="M302.6,122.3l3.3-1.9c0,0,0.1,0,0.1,0l-3.3,1.9C302.7,122.3,302.7,122.3,302.6,122.3"/>
	</g>
	<g>
		<defs>
			<path id="SVGID_15_" d="M324.6,163.5l-0.8-0.7c-1.4-0.2-2.5-1.5-2.5-3l-0.3-0.6C321,161.4,322.6,163.3,324.6,163.5"/>
		</defs>
		<clipPath id="SVGID_16_">
			<use xlink:href="#SVGID_15_"  style="overflow:visible;"/>
		</clipPath>
		<path class="st115" d="M323.8,162.9l0.8,0.7c-2-0.2-3.6-2.1-3.6-4.3l0.3,0.6C321.2,161.3,322.4,162.7,323.8,162.9"/>
	</g>
	<g>
		<defs>
			<path id="SVGID_17_" d="M299.1,125.7l0.3,0.6c0-1.5,1.1-2.6,2.5-2.4l0.8-1.6c-0.1,0-0.3,0-0.4,0
				C300.5,122.3,299.1,123.7,299.1,125.7"/>
		</defs>
		<clipPath id="SVGID_18_">
			<use xlink:href="#SVGID_17_"  style="overflow:visible;"/>
		</clipPath>
		<path class="st116" d="M299.4,126.3l-0.3-0.6c0-1.1,0.4-2,1.1-2.6l0,1.3C299.7,124.9,299.4,125.5,299.4,126.3"/>
		<path class="st117" d="M300.2,124.5l0-1.3c0.1-0.1,0.2-0.2,0.3-0.2l-0.1,1.4C300.3,124.3,300.2,124.4,300.2,124.5"/>
		<path class="st118" d="M300.4,124.3l0.1-1.4c0.1-0.1,0.2-0.1,0.3-0.2l-0.2,1.4C300.5,124.2,300.4,124.2,300.4,124.3"/>
		<path class="st119" d="M300.6,124.2l0.2-1.4c0.1,0,0.2-0.1,0.2-0.1l-0.3,1.5C300.7,124.1,300.6,124.1,300.6,124.2"/>
		<path class="st120" d="M300.7,124.1l0.3-1.5c0.1,0,0.1-0.1,0.2-0.1l-0.3,1.5C300.8,124,300.8,124.1,300.7,124.1"/>
		<path class="st121" d="M300.9,124l0.3-1.5c0.1,0,0.1,0,0.2-0.1L301,124C301,124,300.9,124,300.9,124"/>
		<path class="st122" d="M301,124l0.4-1.5c0.1,0,0.1,0,0.2-0.1l-0.4,1.5C301.1,123.9,301.1,123.9,301,124"/>
		<path class="st123" d="M301.2,123.9l0.4-1.5c0.1,0,0.1,0,0.2,0l-0.5,1.6C301.2,123.9,301.2,123.9,301.2,123.9"/>
		<path class="st124" d="M301.3,123.9l0.5-1.6c0.1,0,0.1,0,0.2,0l-0.5,1.6C301.4,123.9,301.3,123.9,301.3,123.9"/>
		<path class="st125" d="M301.4,123.9l0.5-1.6c0.1,0,0.1,0,0.2,0l-0.6,1.6C301.5,123.9,301.5,123.9,301.4,123.9"/>
		<path class="st126" d="M301.5,123.9l0.6-1.6c0.1,0,0.1,0,0.2,0l-0.6,1.6C301.6,123.9,301.6,123.9,301.5,123.9"/>
		<path class="st127" d="M301.7,123.9l0.6-1.6c0.1,0,0.1,0,0.2,0l-0.7,1.6C301.8,123.9,301.7,123.9,301.7,123.9"/>
		<path class="st128" d="M301.8,123.9l0.7-1.6c0.1,0,0.1,0,0.2,0l-0.7,1.6C301.9,123.9,301.8,123.9,301.8,123.9"/>
		<path class="st129" d="M301.9,123.9l0.7-1.6c0,0,0.1,0,0.1,0L301.9,123.9C302,123.9,301.9,123.9,301.9,123.9"/>
	</g>
	<g>
		<polygon class="st130" points="302.7,122.3 306.1,120.4 309.7,120.8 306.4,122.8 		"/>
		<polygon class="st106" points="321.2,159.8 321,159.3 321,155.4 321.2,156 		"/>
		<polygon class="st131" points="302,123.9 302.7,122.3 306.4,122.8 305.6,124.3 		"/>
		<polygon class="st106" points="331.1,163.8 331.9,164.4 324.6,163.5 323.8,162.9 		"/>
	</g>
	<g>
		<defs>
			<path id="SVGID_19_" d="M335.5,161.1c0,1.3-0.6,2.4-1.6,3l3.3-1.9c1-0.6,1.6-1.7,1.6-3L335.5,161.1z"/>
		</defs>
		<clipPath id="SVGID_20_">
			<use xlink:href="#SVGID_19_"  style="overflow:visible;"/>
		</clipPath>
		<polygon class="st132" points="335.5,161.1 338.8,159.1 338.8,159.2 335.5,161.1 		"/>
		<path class="st133" d="M335.5,161.1l3.3-1.9c0,0.1,0,0.1,0,0.2l-3.3,1.9C335.5,161.2,335.5,161.2,335.5,161.1"/>
		<path class="st134" d="M335.5,161.3l3.3-1.9c0,0.1,0,0.1,0,0.2l-3.3,1.9C335.5,161.4,335.5,161.4,335.5,161.3"/>
		<path class="st135" d="M335.4,161.5l3.3-1.9c0,0.1,0,0.1,0,0.2l-3.3,1.9C335.4,161.6,335.4,161.6,335.4,161.5"/>
		<path class="st136" d="M335.4,161.7l3.3-1.9c0,0.1,0,0.1,0,0.2l-3.3,1.9C335.4,161.8,335.4,161.8,335.4,161.7"/>
		<path class="st137" d="M335.4,161.9l3.3-1.9c0,0.1,0,0.1-0.1,0.2l-3.3,1.9C335.3,162,335.4,162,335.4,161.9"/>
		<path class="st138" d="M335.3,162.1l3.3-1.9c0,0.1,0,0.1-0.1,0.2l-3.3,1.9C335.3,162.2,335.3,162.2,335.3,162.1"/>
		<path class="st139" d="M335.3,162.3l3.3-1.9c0,0.1-0.1,0.1-0.1,0.2l-3.3,1.9C335.2,162.4,335.2,162.4,335.3,162.3"/>
		<path class="st140" d="M335.2,162.5l3.3-1.9c0,0.1-0.1,0.2-0.1,0.2l-3.3,1.9C335.1,162.7,335.2,162.6,335.2,162.5"/>
		<path class="st141" d="M335.1,162.7l3.3-1.9c0,0.1-0.1,0.2-0.1,0.2l-3.3,1.9C335,162.9,335,162.8,335.1,162.7"/>
		<path class="st142" d="M334.9,163l3.3-1.9c-0.1,0.1-0.1,0.2-0.2,0.3l-3.3,1.9C334.8,163.2,334.9,163.1,334.9,163"/>
		<path class="st143" d="M334.7,163.3l3.3-1.9c-0.2,0.3-0.5,0.6-0.9,0.8l-3.3,1.9C334.2,163.9,334.5,163.6,334.7,163.3"/>
	</g>
	<g>
		<polygon class="st144" points="335.5,157.2 338.8,155.2 338.8,159.1 335.5,161.1 		"/>
	</g>
	<g>
		<defs>
			<path id="SVGID_21_" d="M333.7,161.4c0,1.5-1.1,2.6-2.5,2.4l0.8,0.7c2,0.2,3.6-1.3,3.6-3.4L333.7,161.4z"/>
		</defs>
		<clipPath id="SVGID_22_">
			<use xlink:href="#SVGID_21_"  style="overflow:visible;"/>
		</clipPath>
		<path class="st145" d="M333.7,161.4l1.8-0.3c0,0,0,0.1,0,0.1L333.7,161.4C333.7,161.4,333.7,161.4,333.7,161.4"/>
		<path class="st146" d="M333.7,161.5l1.8-0.3c0,0.1,0,0.1,0,0.2l-1.8,0.2C333.6,161.5,333.6,161.5,333.7,161.5"/>
		<path class="st147" d="M333.6,161.6l1.8-0.2c0,0.1,0,0.1,0,0.2l-1.8,0.2C333.6,161.7,333.6,161.6,333.6,161.6"/>
		<path class="st148" d="M333.6,161.7l1.8-0.2c0,0.1,0,0.1,0,0.2l-1.8,0.1C333.6,161.8,333.6,161.7,333.6,161.7"/>
		<path class="st149" d="M333.6,161.8l1.8-0.1c0,0.1,0,0.1,0,0.2l-1.8,0.1C333.6,161.9,333.6,161.9,333.6,161.8"/>
		<path class="st150" d="M333.6,161.9l1.8-0.1c0,0.1,0,0.1,0,0.2l-1.8,0C333.6,162,333.6,162,333.6,161.9"/>
		<path class="st151" d="M333.6,162.1l1.8,0c0,0.1,0,0.1,0,0.2l-1.8,0C333.5,162.1,333.6,162.1,333.6,162.1"/>
		<path class="st152" d="M333.5,162.2l1.8,0c0,0.1,0,0.1-0.1,0.2l-1.8-0.1C333.5,162.3,333.5,162.2,333.5,162.2"/>
		<path class="st153" d="M333.5,162.3l1.8,0.1c0,0.1,0,0.1-0.1,0.2l-1.7-0.1C333.5,162.4,333.5,162.3,333.5,162.3"/>
		<path class="st154" d="M333.4,162.4l1.7,0.1c0,0.1-0.1,0.1-0.1,0.2l-1.7-0.2C333.4,162.5,333.4,162.5,333.4,162.4"/>
		<path class="st155" d="M333.4,162.5l1.7,0.2c0,0.1-0.1,0.1-0.1,0.2l-1.7-0.2C333.3,162.6,333.4,162.6,333.4,162.5"/>
		<path class="st156" d="M333.3,162.7l1.7,0.2c0,0.1-0.1,0.1-0.1,0.2l-1.6-0.3C333.3,162.7,333.3,162.7,333.3,162.7"/>
		<path class="st157" d="M333.2,162.8l1.7,0.3c0,0.1-0.1,0.1-0.1,0.2l-1.6-0.3C333.2,162.9,333.2,162.8,333.2,162.8"/>
		<path class="st158" d="M333.2,162.9l1.6,0.3c0,0.1-0.1,0.1-0.1,0.2l-1.6-0.4C333.1,163,333.1,163,333.2,162.9"/>
		<path class="st159" d="M333.1,163l1.6,0.4c-0.1,0.1-0.1,0.1-0.2,0.2l-1.5-0.4C333,163.1,333,163.1,333.1,163"/>
		<path class="st160" d="M332.9,163.2l1.5,0.4c-0.1,0.1-0.2,0.1-0.2,0.2l-1.5-0.5C332.8,163.3,332.9,163.2,332.9,163.2"/>
		<path class="st161" d="M332.8,163.3l1.5,0.5c-0.1,0.1-0.2,0.2-0.3,0.2l-1.4-0.6C332.6,163.4,332.7,163.4,332.8,163.3"/>
		<path class="st162" d="M332.5,163.5l1.4,0.6c-0.6,0.3-1.3,0.5-2,0.4l-0.8-0.7C331.6,163.8,332.1,163.7,332.5,163.5"/>
	</g>
	<g>
		<polygon class="st106" points="321.2,156 321,155.4 320.9,140 321.2,139.4 		"/>
		<polygon class="st106" points="321.2,139.4 320.9,140 306.4,138.2 305.7,137.5 		"/>
		<polygon class="st163" points="333.6,157.5 335.5,157.2 335.5,161.1 333.7,161.4 		"/>
		<polygon class="st130" points="306.4,122.8 309.7,120.8 324.3,122.6 320.9,124.6 		"/>
		<polygon class="st131" points="305.6,124.3 306.4,122.8 320.9,124.6 321.2,126.2 		"/>
		<polygon class="st144" points="335.4,141.8 338.8,139.8 338.8,155.2 335.5,157.2 		"/>
		<polygon class="st163" points="333.6,141 335.4,141.8 335.5,157.2 333.6,157.5 		"/>
		<polygon class="st106" points="321.2,126.2 320.9,124.6 320.9,109.1 321.2,109.7 		"/>
		<polygon class="st106" points="321.2,109.7 320.9,109.1 320.9,105.2 321.2,105.8 		"/>
	</g>
	<g>
		<defs>
			<path id="SVGID_23_" d="M325.8,100.3l-3.3,1.9c0.6-0.3,1.2-0.5,2-0.4l3.3-1.9c-0.1,0-0.3,0-0.4,0
				C326.8,99.9,326.3,100.1,325.8,100.3"/>
		</defs>
		<clipPath id="SVGID_24_">
			<use xlink:href="#SVGID_23_"  style="overflow:visible;"/>
		</clipPath>
		<path class="st164" d="M322.5,102.2l3.3-1.9c0.1-0.1,0.3-0.1,0.4-0.2l-3.3,1.9C322.8,102.1,322.6,102.2,322.5,102.2"/>
		<path class="st165" d="M322.9,102.1l3.3-1.9c0.1,0,0.2-0.1,0.3-0.1l-3.3,1.9C323.1,102,323,102,322.9,102.1"/>
		<path class="st166" d="M323.2,101.9l3.3-1.9c0.1,0,0.2,0,0.3-0.1l-3.3,1.9C323.4,101.9,323.3,101.9,323.2,101.9"/>
		<path class="st167" d="M323.5,101.9l3.3-1.9c0.1,0,0.2,0,0.2,0l-3.3,1.9C323.6,101.9,323.6,101.9,323.5,101.9"/>
		<path class="st168" d="M323.7,101.9l3.3-1.9c0.1,0,0.1,0,0.2,0l-3.3,1.9C323.9,101.8,323.8,101.8,323.7,101.9"/>
		<path class="st169" d="M323.9,101.8l3.3-1.9c0.1,0,0.1,0,0.2,0l-3.3,1.9C324.1,101.8,324,101.8,323.9,101.8"/>
		<path class="st170" d="M324.2,101.8l3.3-1.9c0.1,0,0.1,0,0.2,0l-3.3,1.9C324.3,101.8,324.2,101.8,324.2,101.8"/>
		<path class="st171" d="M324.4,101.9l3.3-1.9c0,0,0.1,0,0.1,0l-3.3,1.9C324.4,101.9,324.4,101.9,324.4,101.9"/>
	</g>
	<g>
		<defs>
			<path id="SVGID_25_" d="M320.9,105.2l0.3,0.6c0-1.5,1.1-2.6,2.5-2.4l0.8-1.6c-0.1,0-0.3,0-0.4,0
				C322.3,101.8,320.9,103.3,320.9,105.2"/>
		</defs>
		<clipPath id="SVGID_26_">
			<use xlink:href="#SVGID_25_"  style="overflow:visible;"/>
		</clipPath>
		<path class="st172" d="M321.2,105.8l-0.3-0.6c0-1.1,0.4-2,1.1-2.6l0,1.3C321.4,104.4,321.2,105.1,321.2,105.8"/>
		<path class="st173" d="M321.9,104l0-1.3c0.1-0.1,0.2-0.2,0.3-0.3l-0.1,1.4C322,103.9,322,103.9,321.9,104"/>
		<path class="st174" d="M322.1,103.8l0.1-1.4c0.1-0.1,0.2-0.1,0.3-0.2l-0.2,1.4C322.2,103.7,322.2,103.8,322.1,103.8"/>
		<path class="st175" d="M322.3,103.7l0.2-1.4c0.1,0,0.2-0.1,0.2-0.1l-0.3,1.5C322.4,103.6,322.4,103.7,322.3,103.7"/>
		<path class="st176" d="M322.5,103.6l0.3-1.5c0.1,0,0.1-0.1,0.2-0.1l-0.3,1.5C322.6,103.6,322.5,103.6,322.5,103.6"/>
		<path class="st177" d="M322.6,103.5l0.3-1.5c0.1,0,0.1,0,0.2-0.1l-0.4,1.5C322.7,103.5,322.7,103.5,322.6,103.5"/>
		<path class="st178" d="M322.8,103.5l0.4-1.5c0.1,0,0.1,0,0.2-0.1l-0.4,1.5C322.8,103.5,322.8,103.5,322.8,103.5"/>
		<path class="st179" d="M322.9,103.5l0.4-1.5c0.1,0,0.1,0,0.2,0l-0.5,1.6C323,103.4,322.9,103.5,322.9,103.5"/>
		<path class="st180" d="M323,103.4l0.5-1.6c0.1,0,0.1,0,0.2,0l-0.5,1.6C323.1,103.4,323.1,103.4,323,103.4"/>
		<path class="st181" d="M323.1,103.4l0.5-1.6c0.1,0,0.1,0,0.2,0l-0.6,1.6C323.2,103.4,323.2,103.4,323.1,103.4"/>
		<path class="st182" d="M323.3,103.4l0.6-1.6c0.1,0,0.1,0,0.2,0l-0.6,1.6C323.4,103.4,323.3,103.4,323.3,103.4"/>
		<path class="st183" d="M323.4,103.4l0.6-1.6c0.1,0,0.1,0,0.2,0l-0.7,1.6C323.5,103.4,323.4,103.4,323.4,103.4"/>
		<path class="st184" d="M323.5,103.4l0.7-1.6c0.1,0,0.1,0,0.2,0l-0.7,1.6C323.6,103.4,323.6,103.4,323.5,103.4"/>
		<path class="st185" d="M323.6,103.4l0.7-1.6c0,0,0.1,0,0.1,0L323.6,103.4C323.7,103.4,323.7,103.4,323.6,103.4"/>
	</g>
	<g>
		<polygon class="st106" points="349.2,142.9 349.9,143.5 335.4,141.8 333.6,141 		"/>
		<polygon class="st144" points="335.4,110.9 338.7,109 338.8,124.4 335.4,126.3 		"/>
		<polygon class="st130" points="324.5,101.9 327.8,99.9 335.1,100.8 331.8,102.8 		"/>
		<polygon class="st144" points="335.4,107 338.7,105.1 338.7,109 335.4,110.9 		"/>
		<polygon class="st163" points="333.6,111.2 335.4,110.9 335.4,126.3 333.6,127.8 		"/>
		<polygon class="st106" points="352.8,143.3 353.6,144 349.9,143.5 349.2,142.9 		"/>
	</g>
	<g>
		<defs>
			<path id="SVGID_27_" d="M331.8,102.8c2,0.2,3.6,2.2,3.6,4.3l3.3-1.9c0-2.1-1.6-4-3.6-4.3L331.8,102.8z"/>
		</defs>
		<clipPath id="SVGID_28_">
			<use xlink:href="#SVGID_27_"  style="overflow:visible;"/>
		</clipPath>
		<path class="st186" d="M331.8,102.8l3.3-1.9c0,0,0.1,0,0.1,0L331.8,102.8C331.8,102.8,331.8,102.8,331.8,102.8"/>
		<path class="st187" d="M331.9,102.8l3.3-1.9c0.1,0,0.1,0,0.2,0l-3.3,1.9C332,102.8,331.9,102.8,331.9,102.8"/>
		<path class="st188" d="M332.1,102.8l3.3-1.9c0.1,0,0.1,0,0.2,0l-3.3,1.9C332.2,102.8,332.1,102.8,332.1,102.8"/>
		<path class="st189" d="M332.3,102.9l3.3-1.9c0.1,0,0.1,0,0.2,0.1l-3.3,1.9C332.4,102.9,332.3,102.9,332.3,102.9"/>
		<path class="st190" d="M332.4,102.9l3.3-1.9c0.1,0,0.1,0,0.2,0.1l-3.3,1.9C332.6,103,332.5,102.9,332.4,102.9"/>
		<path class="st191" d="M332.6,103l3.3-1.9c0.1,0,0.1,0.1,0.2,0.1l-3.3,1.9C332.8,103,332.7,103,332.6,103"/>
		<path class="st192" d="M332.8,103.1l3.3-1.9c0.1,0,0.1,0.1,0.2,0.1l-3.3,1.9C333,103.1,332.9,103.1,332.8,103.1"/>
		<path class="st193" d="M333,103.2l3.3-1.9c0.1,0,0.1,0.1,0.2,0.1l-3.3,1.9C333.2,103.2,333.1,103.2,333,103.2"/>
		<path class="st194" d="M333.3,103.3l3.3-1.9c0.1,0,0.2,0.1,0.2,0.1l-3.3,1.9C333.4,103.4,333.3,103.3,333.3,103.3"/>
		<path class="st195" d="M333.5,103.4l3.3-1.9c0.1,0.1,0.2,0.1,0.3,0.2l-3.3,1.9C333.7,103.6,333.6,103.5,333.5,103.4"/>
		<path class="st196" d="M333.7,103.6l3.3-1.9c0.1,0.1,0.2,0.2,0.3,0.3l-3.3,1.9C334,103.8,333.9,103.7,333.7,103.6"/>
		<path class="st197" d="M334.1,103.9l3.3-1.9c0.4,0.4,0.7,0.8,0.9,1.2l-3.3,1.9C334.7,104.7,334.4,104.3,334.1,103.9"/>
		<path class="st196" d="M335,105.2l3.3-1.9c0.1,0.1,0.1,0.3,0.2,0.4l-3.3,1.9C335.1,105.4,335,105.3,335,105.2"/>
		<path class="st195" d="M335.1,105.6l3.3-1.9c0,0.1,0.1,0.2,0.1,0.3l-3.3,1.9C335.2,105.8,335.2,105.7,335.1,105.6"/>
		<path class="st194" d="M335.2,105.9l3.3-1.9c0,0.1,0,0.2,0.1,0.3l-3.3,1.9C335.3,106.1,335.3,106,335.2,105.9"/>
		<path class="st193" d="M335.3,106.2l3.3-1.9c0,0.1,0,0.2,0,0.2l-3.3,1.9C335.3,106.3,335.3,106.2,335.3,106.2"/>
		<path class="st192" d="M335.3,106.4l3.3-1.9c0,0.1,0,0.2,0,0.2l-3.3,1.9C335.4,106.6,335.3,106.5,335.3,106.4"/>
		<path class="st191" d="M335.4,106.6l3.3-1.9c0,0.1,0,0.1,0,0.2l-3.3,1.9C335.4,106.8,335.4,106.7,335.4,106.6"/>
		<path class="st190" d="M335.4,106.8l3.3-1.9c0,0.1,0,0.1,0,0.2l-3.3,1.9C335.4,107,335.4,106.9,335.4,106.8"/>
	</g>
	<g>
		<polygon class="st131" points="323.7,103.4 324.5,101.9 331.8,102.8 331,104.3 		"/>
		<polygon class="st163" points="333.6,107.3 335.4,107 335.4,110.9 333.6,111.2 		"/>
		<polygon class="st130" points="335.4,126.3 338.8,124.4 353.3,126.2 349.9,128.1 		"/>
	</g>
	<g>
		<defs>
			<path id="SVGID_29_" d="M357.2,140.6c0,1.3-0.6,2.4-1.6,3l3.3-1.9c1-0.6,1.6-1.7,1.6-3L357.2,140.6z"/>
		</defs>
		<clipPath id="SVGID_30_">
			<use xlink:href="#SVGID_29_"  style="overflow:visible;"/>
		</clipPath>
		<path class="st198" d="M357.2,140.6l3.3-1.9c0,0,0,0,0,0L357.2,140.6L357.2,140.6"/>
		<path class="st199" d="M357.2,140.6l3.3-1.9c0,0.1,0,0.1,0,0.2l-3.3,1.9C357.2,140.8,357.2,140.7,357.2,140.6"/>
		<path class="st200" d="M357.2,140.8l3.3-1.9c0,0.1,0,0.1,0,0.2l-3.3,1.9C357.2,141,357.2,140.9,357.2,140.8"/>
		<path class="st201" d="M357.2,141l3.3-1.9c0,0.1,0,0.1,0,0.2l-3.3,1.9C357.1,141.2,357.2,141.1,357.2,141"/>
		<path class="st202" d="M357.1,141.2l3.3-1.9c0,0.1,0,0.1,0,0.2l-3.3,1.9C357.1,141.4,357.1,141.3,357.1,141.2"/>
		<path class="st203" d="M357.1,141.4l3.3-1.9c0,0.1,0,0.1-0.1,0.2l-3.3,1.9C357.1,141.6,357.1,141.5,357.1,141.4"/>
		<path class="st204" d="M357,141.6l3.3-1.9c0,0.1,0,0.1-0.1,0.2l-3.3,1.9C357,141.8,357,141.7,357,141.6"/>
		<path class="st205" d="M357,141.9l3.3-1.9c0,0.1-0.1,0.1-0.1,0.2l-3.3,1.9C356.9,142,357,141.9,357,141.9"/>
		<path class="st206" d="M356.9,142.1l3.3-1.9c0,0.1-0.1,0.2-0.1,0.2l-3.3,1.9C356.8,142.2,356.9,142.1,356.9,142.1"/>
		<path class="st207" d="M356.8,142.3l3.3-1.9c0,0.1-0.1,0.2-0.1,0.2l-3.3,1.9C356.7,142.5,356.8,142.4,356.8,142.3"/>
		<path class="st208" d="M356.7,142.5l3.3-1.9c-0.1,0.1-0.1,0.2-0.2,0.3l-3.3,1.9C356.5,142.7,356.6,142.6,356.7,142.5"/>
		<path class="st209" d="M356.5,142.8l3.3-1.9c-0.2,0.3-0.5,0.6-0.9,0.8l-3.3,1.9C355.9,143.4,356.2,143.1,356.5,142.8"/>
	</g>
	<g>
		<defs>
			<path id="SVGID_31_" d="M331,104.3c1.4,0.2,2.6,1.5,2.6,3l1.8-0.3c0-2.1-1.6-4-3.6-4.3L331,104.3z"/>
		</defs>
		<clipPath id="SVGID_32_">
			<use xlink:href="#SVGID_31_"  style="overflow:visible;"/>
		</clipPath>
		<path class="st210" d="M331,104.3l0.8-1.6c0,0,0.1,0,0.1,0L331,104.3C331.1,104.3,331,104.3,331,104.3"/>
		<path class="st211" d="M331.1,104.3l0.8-1.6c0.1,0,0.1,0,0.2,0l-0.8,1.5C331.2,104.3,331.1,104.3,331.1,104.3"/>
		<path class="st212" d="M331.2,104.4l0.8-1.5c0.1,0,0.1,0,0.2,0l-0.9,1.5C331.3,104.4,331.2,104.4,331.2,104.4"/>
		<path class="st213" d="M331.3,104.4l0.9-1.5c0.1,0,0.1,0,0.2,0l-0.9,1.5C331.4,104.4,331.4,104.4,331.3,104.4"/>
		<path class="st214" d="M331.4,104.4l0.9-1.5c0.1,0,0.1,0,0.2,0.1l-1,1.5C331.5,104.4,331.5,104.4,331.4,104.4"/>
		<path class="st215" d="M331.6,104.5l1-1.5c0.1,0,0.1,0,0.2,0.1l-1,1.5C331.6,104.5,331.6,104.5,331.6,104.5"/>
		<path class="st216" d="M331.7,104.5l1-1.5c0.1,0,0.1,0,0.2,0.1l-1.1,1.5C331.8,104.5,331.7,104.5,331.7,104.5"/>
		<path class="st217" d="M331.8,104.5l1.1-1.5c0,0,0.1,0,0.1,0.1L331.8,104.5C331.9,104.6,331.8,104.6,331.8,104.5"/>
		<path class="st218" d="M331.9,104.6l1.1-1.4c0,0,0.1,0,0.1,0.1L331.9,104.6C332,104.6,331.9,104.6,331.9,104.6"/>
		<path class="st219" d="M332,104.6l1.2-1.4c0,0,0.1,0,0.1,0.1L332,104.6C332,104.7,332,104.7,332,104.6"/>
		<path class="st220" d="M332.1,104.7l1.2-1.4c0,0,0.1,0,0.1,0.1L332.1,104.7C332.1,104.7,332.1,104.7,332.1,104.7"/>
		<path class="st221" d="M332.1,104.7l1.2-1.4c0,0,0.1,0,0.1,0.1L332.1,104.7C332.2,104.8,332.2,104.8,332.1,104.7"/>
		<path class="st222" d="M332.2,104.8l1.3-1.4c0,0,0.1,0,0.1,0.1L332.2,104.8C332.3,104.8,332.2,104.8,332.2,104.8"/>
		<path class="st223" d="M332.3,104.8l1.3-1.3c0,0,0.1,0,0.1,0.1L332.3,104.8C332.3,104.9,332.3,104.9,332.3,104.8"/>
		<path class="st224" d="M332.3,104.9l1.3-1.3c0,0,0.1,0,0.1,0.1L332.3,104.9C332.4,104.9,332.4,104.9,332.3,104.9"/>
		<path class="st225" d="M332.4,104.9l1.3-1.3c0,0,0.1,0,0.1,0.1L332.4,104.9C332.4,105,332.4,104.9,332.4,104.9"/>
		<path class="st226" d="M332.5,105l1.4-1.3c0,0,0.1,0,0.1,0.1L332.5,105C332.5,105,332.5,105,332.5,105"/>
		<path class="st227" d="M332.5,105l1.4-1.3c0,0,0.1,0,0.1,0.1L332.5,105C332.6,105.1,332.5,105,332.5,105"/>
		<path class="st228" d="M332.6,105.1l1.4-1.2c0,0,0,0,0.1,0.1L332.6,105.1C332.6,105.1,332.6,105.1,332.6,105.1"/>
		<path class="st229" d="M332.6,105.1l1.4-1.2c0,0,0,0.1,0.1,0.1L332.6,105.1C332.7,105.2,332.6,105.1,332.6,105.1"/>
		<path class="st230" d="M332.7,105.2l1.5-1.2c0,0,0.1,0.1,0.1,0.1L332.7,105.2C332.7,105.2,332.7,105.2,332.7,105.2"/>
		<path class="st231" d="M332.7,105.2l1.5-1.2c0,0,0.1,0.1,0.1,0.1L332.7,105.2C332.8,105.3,332.8,105.3,332.7,105.2"/>
		<path class="st232" d="M332.8,105.3l1.5-1.1c0,0,0.1,0.1,0.1,0.1L332.8,105.3C332.9,105.4,332.8,105.3,332.8,105.3"/>
		<path class="st233" d="M332.9,105.4l1.5-1.1c0.1,0.1,0.1,0.2,0.2,0.3l-1.6,1C333,105.5,332.9,105.5,332.9,105.4"/>
		<path class="st234" d="M333,105.6l1.6-1c0,0,0.1,0.1,0.1,0.1l-1.6,1C333.1,105.7,333,105.6,333,105.6"/>
		<path class="st233" d="M333.1,105.7l1.6-1c0,0.1,0.1,0.2,0.1,0.2l-1.7,0.9C333.2,105.8,333.1,105.8,333.1,105.7"/>
		<path class="st232" d="M333.2,105.9l1.7-0.9c0,0,0,0.1,0.1,0.1L333.2,105.9C333.2,105.9,333.2,105.9,333.2,105.9"/>
		<path class="st231" d="M333.2,106l1.7-0.9c0,0,0,0.1,0.1,0.1L333.2,106C333.3,106,333.2,106,333.2,106"/>
		<path class="st230" d="M333.3,106l1.7-0.8c0,0,0,0.1,0,0.1L333.3,106C333.3,106.1,333.3,106.1,333.3,106"/>
		<path class="st229" d="M333.3,106.1l1.7-0.8c0,0,0,0.1,0,0.1L333.3,106.1C333.3,106.2,333.3,106.1,333.3,106.1"/>
		<path class="st228" d="M333.3,106.2l1.7-0.8c0,0,0,0.1,0,0.1L333.3,106.2C333.4,106.2,333.3,106.2,333.3,106.2"/>
		<path class="st227" d="M333.4,106.3l1.7-0.8c0,0,0,0.1,0,0.1L333.4,106.3C333.4,106.3,333.4,106.3,333.4,106.3"/>
		<path class="st226" d="M333.4,106.3l1.7-0.7c0,0,0,0.1,0,0.1L333.4,106.3C333.4,106.4,333.4,106.3,333.4,106.3"/>
		<path class="st225" d="M333.4,106.4l1.8-0.7c0,0,0,0.1,0,0.1L333.4,106.4C333.4,106.4,333.4,106.4,333.4,106.4"/>
		<path class="st224" d="M333.4,106.4l1.8-0.7c0,0,0,0.1,0,0.1L333.4,106.4C333.4,106.5,333.4,106.5,333.4,106.4"/>
		<path class="st223" d="M333.4,106.5l1.8-0.7c0,0,0,0.1,0,0.1L333.4,106.5C333.5,106.6,333.5,106.5,333.4,106.5"/>
		<path class="st222" d="M333.5,106.6l1.8-0.6c0,0,0,0.1,0,0.1L333.5,106.6C333.5,106.6,333.5,106.6,333.5,106.6"/>
		<path class="st221" d="M333.5,106.7l1.8-0.6c0,0,0,0.1,0,0.1L333.5,106.7C333.5,106.7,333.5,106.7,333.5,106.7"/>
		<path class="st220" d="M333.5,106.7l1.8-0.6c0,0,0,0.1,0,0.1L333.5,106.7C333.5,106.8,333.5,106.8,333.5,106.7"/>
		<path class="st219" d="M333.5,106.8l1.8-0.5c0,0,0,0.1,0,0.1L333.5,106.8C333.5,106.9,333.5,106.8,333.5,106.8"/>
		<path class="st218" d="M333.5,106.9l1.8-0.5c0,0,0,0.1,0,0.1L333.5,106.9C333.5,107,333.5,106.9,333.5,106.9"/>
		<path class="st217" d="M333.5,107l1.8-0.5c0,0,0,0.1,0,0.1L333.5,107C333.6,107.1,333.5,107,333.5,107"/>
		<path class="st216" d="M333.6,107.1l1.8-0.4c0,0.1,0,0.1,0,0.2l-1.8,0.4C333.6,107.2,333.6,107.1,333.6,107.1"/>
		<path class="st215" d="M333.6,107.2l1.8-0.4c0,0.1,0,0.1,0,0.2l-1.8,0.3C333.6,107.3,333.6,107.2,333.6,107.2"/>
		<path class="st214" d="M333.6,107.3l1.8-0.3c0,0,0,0,0,0.1L333.6,107.3C333.6,107.3,333.6,107.3,333.6,107.3"/>
	</g>
	<g>
		<defs>
			<path id="SVGID_33_" d="M355.4,140.9c0,1.5-1.1,2.6-2.5,2.4l0.8,0.7c2,0.2,3.6-1.3,3.6-3.4L355.4,140.9z"/>
		</defs>
		<clipPath id="SVGID_34_">
			<use xlink:href="#SVGID_33_"  style="overflow:visible;"/>
		</clipPath>
		<path class="st235" d="M355.4,140.9l1.8-0.3c0,0,0,0.1,0,0.1L355.4,140.9C355.4,141,355.4,140.9,355.4,140.9"/>
		<path class="st236" d="M355.4,141l1.8-0.3c0,0.1,0,0.1,0,0.2l-1.8,0.2C355.4,141.1,355.4,141,355.4,141"/>
		<path class="st237" d="M355.4,141.1l1.8-0.2c0,0.1,0,0.1,0,0.2l-1.8,0.2C355.4,141.2,355.4,141.2,355.4,141.1"/>
		<path class="st238" d="M355.4,141.2l1.8-0.2c0,0.1,0,0.1,0,0.2l-1.8,0.1C355.3,141.3,355.3,141.3,355.4,141.2"/>
		<path class="st239" d="M355.3,141.4l1.8-0.1c0,0.1,0,0.1,0,0.2l-1.8,0.1C355.3,141.4,355.3,141.4,355.3,141.4"/>
		<path class="st240" d="M355.3,141.5l1.8-0.1c0,0.1,0,0.1,0,0.2l-1.8,0C355.3,141.6,355.3,141.5,355.3,141.5"/>
		<path class="st241" d="M355.3,141.6l1.8,0c0,0.1,0,0.1,0,0.2l-1.8,0C355.3,141.7,355.3,141.7,355.3,141.6"/>
		<path class="st242" d="M355.2,141.7l1.8,0c0,0.1,0,0.1-0.1,0.2l-1.7-0.1C355.2,141.8,355.2,141.8,355.2,141.7"/>
		<path class="st243" d="M355.2,141.9l1.7,0.1c0,0.1,0,0.1-0.1,0.2l-1.7-0.1C355.2,141.9,355.2,141.9,355.2,141.9"/>
		<path class="st244" d="M355.2,142l1.7,0.1c0,0.1-0.1,0.1-0.1,0.2l-1.7-0.2C355.1,142.1,355.1,142,355.2,142"/>
		<path class="st245" d="M355.1,142.1l1.7,0.2c0,0.1-0.1,0.1-0.1,0.2l-1.7-0.2C355.1,142.2,355.1,142.1,355.1,142.1"/>
		<path class="st246" d="M355,142.2l1.7,0.2c0,0.1-0.1,0.1-0.1,0.2l-1.6-0.3C355,142.3,355,142.3,355,142.2"/>
		<path class="st247" d="M355,142.3l1.6,0.3c0,0.1-0.1,0.1-0.1,0.2l-1.6-0.3C354.9,142.4,354.9,142.4,355,142.3"/>
		<path class="st248" d="M354.9,142.5l1.6,0.3c0,0.1-0.1,0.1-0.1,0.2l-1.6-0.4C354.8,142.6,354.8,142.5,354.9,142.5"/>
		<path class="st249" d="M354.8,142.6l1.6,0.4c-0.1,0.1-0.1,0.1-0.2,0.2l-1.5-0.4C354.7,142.7,354.7,142.6,354.8,142.6"/>
		<path class="st250" d="M354.6,142.7l1.5,0.4c-0.1,0.1-0.2,0.1-0.2,0.2l-1.4-0.5C354.5,142.8,354.6,142.8,354.6,142.7"/>
		<path class="st251" d="M354.5,142.9l1.4,0.5c-0.1,0.1-0.2,0.2-0.3,0.2l-1.4-0.6C354.3,143,354.4,142.9,354.5,142.9"/>
		<path class="st252" d="M354.2,143l1.4,0.6c-0.6,0.3-1.3,0.5-2,0.4l-0.8-0.7C353.4,143.4,353.8,143.3,354.2,143"/>
	</g>
	<g>
		<polygon class="st131" points="333.6,127.8 335.4,126.3 349.9,128.1 349.2,129.7 		"/>
		<polygon class="st130" points="349.9,128.1 353.3,126.2 356.9,126.6 353.6,128.6 		"/>
		<polygon class="st144" points="357.2,132.8 360.5,130.9 360.5,138.7 357.2,140.6 		"/>
	</g>
	<g>
		<defs>
			<path id="SVGID_35_" d="M353.6,128.6c2,0.2,3.6,2.1,3.6,4.3l3.3-1.9c0-2.1-1.6-4-3.6-4.3L353.6,128.6z"/>
		</defs>
		<clipPath id="SVGID_36_">
			<use xlink:href="#SVGID_35_"  style="overflow:visible;"/>
		</clipPath>
		<path class="st253" d="M353.6,128.6l3.3-1.9c0,0,0.1,0,0.1,0L353.6,128.6C353.6,128.6,353.6,128.6,353.6,128.6"/>
		<path class="st254" d="M353.7,128.6l3.3-1.9c0.1,0,0.1,0,0.2,0l-3.3,1.9C353.8,128.6,353.7,128.6,353.7,128.6"/>
		<path class="st255" d="M353.9,128.6l3.3-1.9c0.1,0,0.1,0,0.2,0l-3.3,1.9C354,128.6,353.9,128.6,353.9,128.6"/>
		<path class="st256" d="M354.1,128.7l3.3-1.9c0.1,0,0.1,0,0.2,0.1l-3.3,1.9C354.2,128.7,354.1,128.7,354.1,128.7"/>
		<path class="st257" d="M354.3,128.7l3.3-1.9c0.1,0,0.1,0,0.2,0.1l-3.3,1.9C354.4,128.8,354.3,128.7,354.3,128.7"/>
		<path class="st258" d="M354.4,128.8l3.3-1.9c0.1,0,0.1,0.1,0.2,0.1l-3.3,1.9C354.6,128.8,354.5,128.8,354.4,128.8"/>
		<path class="st259" d="M354.6,128.9l3.3-1.9c0.1,0,0.1,0.1,0.2,0.1l-3.3,1.9C354.8,128.9,354.7,128.9,354.6,128.9"/>
		<path class="st260" d="M354.8,129l3.3-1.9c0.1,0,0.1,0.1,0.2,0.1l-3.3,1.9C355,129,354.9,129,354.8,129"/>
		<path class="st261" d="M355.1,129.1l3.3-1.9c0.1,0,0.2,0.1,0.2,0.1l-3.3,1.9C355.2,129.2,355.1,129.1,355.1,129.1"/>
		<path class="st262" d="M355.3,129.2l3.3-1.9c0.1,0.1,0.2,0.1,0.3,0.2l-3.3,1.9C355.5,129.4,355.4,129.3,355.3,129.2"/>
		<path class="st263" d="M355.5,129.4l3.3-1.9c0.1,0.1,0.2,0.2,0.3,0.3l-3.3,1.9C355.8,129.6,355.7,129.5,355.5,129.4"/>
		<path class="st264" d="M355.9,129.7l3.3-1.9c0.4,0.4,0.7,0.8,0.9,1.2l-3.3,1.9C356.5,130.5,356.2,130.1,355.9,129.7"/>
		<path class="st263" d="M356.7,131l3.3-1.9c0.1,0.1,0.1,0.3,0.2,0.4l-3.3,1.9C356.9,131.2,356.8,131.1,356.7,131"/>
		<path class="st262" d="M356.9,131.4l3.3-1.9c0,0.1,0.1,0.2,0.1,0.3l-3.3,1.9C357,131.6,357,131.5,356.9,131.4"/>
		<path class="st261" d="M357,131.7l3.3-1.9c0,0.1,0,0.2,0.1,0.3l-3.3,1.9C357.1,131.9,357,131.8,357,131.7"/>
		<path class="st260" d="M357.1,131.9l3.3-1.9c0,0.1,0,0.2,0,0.2l-3.3,1.9C357.1,132.1,357.1,132,357.1,131.9"/>
		<path class="st259" d="M357.1,132.2l3.3-1.9c0,0.1,0,0.2,0,0.2l-3.3,1.9C357.1,132.3,357.1,132.3,357.1,132.2"/>
		<path class="st258" d="M357.2,132.4l3.3-1.9c0,0.1,0,0.1,0,0.2l-3.3,1.9C357.2,132.6,357.2,132.5,357.2,132.4"/>
		<path class="st257" d="M357.2,132.6l3.3-1.9c0,0.1,0,0.1,0,0.2l-3.3,1.9C357.2,132.8,357.2,132.7,357.2,132.6"/>
	</g>
	<g>
		<polygon class="st131" points="349.2,129.7 349.9,128.1 353.6,128.6 352.8,130.1 		"/>
		<polygon class="st163" points="355.4,133.1 357.2,132.8 357.2,140.6 355.4,140.9 		"/>
		<path class="st265" d="M331,104.3c1.4,0.2,2.6,1.5,2.6,3l0,3.9l0,16.5l15.6,1.9l3.7,0.4c1.4,0.2,2.5,1.5,2.5,3l0,7.8
			c0,1.5-1.1,2.6-2.5,2.4l-3.7-0.4l-15.6-1.9l0,16.5l0,3.9c0,1.5-1.1,2.6-2.5,2.4l-7.3-0.9c-1.4-0.2-2.5-1.5-2.5-3l0-3.9l0-16.5
			l-15.6-1.9l-3.7-0.4c-1.4-0.2-2.6-1.5-2.6-3l0-7.8c0-1.5,1.1-2.6,2.5-2.4l3.7,0.4l15.6,1.9l0-16.5l0-3.9c0-1.5,1.1-2.6,2.5-2.4
			L331,104.3z"/>
	</g>
	<g>
		<defs>
			<path id="SVGID_37_" d="M352.8,130.1c1.4,0.2,2.5,1.5,2.5,3l1.8-0.3c0-2.1-1.6-4-3.6-4.3L352.8,130.1z"/>
		</defs>
		<clipPath id="SVGID_38_">
			<use xlink:href="#SVGID_37_"  style="overflow:visible;"/>
		</clipPath>
		<path class="st266" d="M352.8,130.1l0.8-1.6c0,0,0.1,0,0.1,0L352.8,130.1C352.9,130.1,352.8,130.1,352.8,130.1"/>
		<path class="st267" d="M352.9,130.1l0.8-1.6c0.1,0,0.1,0,0.2,0l-0.8,1.5C353,130.1,352.9,130.1,352.9,130.1"/>
		<path class="st268" d="M353,130.2l0.8-1.5c0.1,0,0.1,0,0.2,0l-0.9,1.5C353.1,130.2,353.1,130.2,353,130.2"/>
		<path class="st269" d="M353.1,130.2l0.9-1.5c0.1,0,0.1,0,0.2,0l-0.9,1.5C353.2,130.2,353.2,130.2,353.1,130.2"/>
		<path class="st270" d="M353.3,130.2l0.9-1.5c0.1,0,0.1,0,0.2,0.1l-1,1.5C353.3,130.2,353.3,130.2,353.3,130.2"/>
		<path class="st271" d="M353.4,130.3l1-1.5c0.1,0,0.1,0,0.2,0.1l-1,1.5C353.4,130.3,353.4,130.3,353.4,130.3"/>
		<path class="st272" d="M353.5,130.3l1-1.5c0.1,0,0.1,0,0.2,0.1l-1.1,1.5C353.6,130.3,353.5,130.3,353.5,130.3"/>
		<path class="st273" d="M353.6,130.3l1.1-1.5c0,0,0.1,0,0.1,0.1L353.6,130.3C353.7,130.4,353.6,130.4,353.6,130.3"/>
		<path class="st274" d="M353.7,130.4l1.1-1.4c0,0,0.1,0,0.1,0.1L353.7,130.4C353.8,130.4,353.7,130.4,353.7,130.4"/>
		<path class="st275" d="M353.8,130.4l1.2-1.4c0,0,0.1,0,0.1,0.1L353.8,130.4C353.8,130.5,353.8,130.5,353.8,130.4"/>
		<path class="st276" d="M353.9,130.5l1.2-1.4c0,0,0.1,0,0.1,0.1L353.9,130.5C353.9,130.5,353.9,130.5,353.9,130.5"/>
		<path class="st277" d="M353.9,130.5l1.2-1.4c0,0,0.1,0,0.1,0.1L353.9,130.5C354,130.6,354,130.6,353.9,130.5"/>
		<path class="st278" d="M354,130.6l1.3-1.4c0,0,0.1,0,0.1,0.1L354,130.6C354.1,130.6,354,130.6,354,130.6"/>
		<path class="st279" d="M354.1,130.6l1.3-1.3c0,0,0.1,0,0.1,0.1L354.1,130.6C354.1,130.7,354.1,130.7,354.1,130.6"/>
		<path class="st280" d="M354.1,130.7l1.3-1.3c0,0,0.1,0,0.1,0.1L354.1,130.7C354.2,130.7,354.2,130.7,354.1,130.7"/>
		<path class="st281" d="M354.2,130.7l1.3-1.3c0,0,0.1,0,0.1,0.1L354.2,130.7C354.2,130.8,354.2,130.8,354.2,130.7"/>
		<path class="st282" d="M354.3,130.8l1.4-1.3c0,0,0.1,0,0.1,0.1L354.3,130.8C354.3,130.8,354.3,130.8,354.3,130.8"/>
		<path class="st283" d="M354.3,130.8l1.4-1.3c0,0,0.1,0,0.1,0.1L354.3,130.8C354.4,130.9,354.3,130.8,354.3,130.8"/>
		<path class="st284" d="M354.4,130.9l1.4-1.2c0,0,0,0,0.1,0.1L354.4,130.9C354.4,130.9,354.4,130.9,354.4,130.9"/>
		<path class="st285" d="M354.4,130.9l1.4-1.2c0,0,0.1,0.1,0.1,0.1L354.4,130.9C354.5,131,354.4,131,354.4,130.9"/>
		<path class="st286" d="M354.5,131l1.5-1.2c0,0,0.1,0.1,0.1,0.1L354.5,131C354.5,131,354.5,131,354.5,131"/>
		<path class="st287" d="M354.5,131.1l1.5-1.2c0,0,0.1,0.1,0.1,0.1L354.5,131.1C354.6,131.1,354.6,131.1,354.5,131.1"/>
		<path class="st288" d="M354.6,131.1l1.5-1.1c0,0,0.1,0.1,0.1,0.1L354.6,131.1C354.6,131.2,354.6,131.1,354.6,131.1"/>
		<path class="st289" d="M354.7,131.2l1.5-1.1c0.1,0.1,0.1,0.2,0.2,0.3l-1.6,1C354.8,131.3,354.7,131.3,354.7,131.2"/>
		<path class="st290" d="M354.8,131.4l1.6-1c0,0,0.1,0.1,0.1,0.1l-1.6,1C354.9,131.5,354.8,131.4,354.8,131.4"/>
		<path class="st289" d="M354.9,131.5l1.6-1c0,0.1,0.1,0.2,0.1,0.2l-1.7,0.9C354.9,131.6,354.9,131.6,354.9,131.5"/>
		<path class="st288" d="M355,131.7l1.7-0.9c0,0,0,0.1,0.1,0.1L355,131.7C355,131.7,355,131.7,355,131.7"/>
		<path class="st287" d="M355,131.8l1.7-0.9c0,0,0,0.1,0.1,0.1L355,131.8C355.1,131.8,355,131.8,355,131.8"/>
		<path class="st286" d="M355.1,131.8l1.7-0.8c0,0,0,0.1,0,0.1L355.1,131.8C355.1,131.9,355.1,131.9,355.1,131.8"/>
		<path class="st285" d="M355.1,131.9l1.7-0.8c0,0,0,0.1,0,0.1L355.1,131.9C355.1,132,355.1,131.9,355.1,131.9"/>
		<path class="st284" d="M355.1,132l1.7-0.8c0,0,0,0.1,0,0.1L355.1,132C355.1,132,355.1,132,355.1,132"/>
		<path class="st283" d="M355.2,132l1.7-0.8c0,0,0,0.1,0,0.1L355.2,132C355.2,132.1,355.2,132.1,355.2,132"/>
		<path class="st282" d="M355.2,132.1l1.7-0.7c0,0,0,0.1,0,0.1L355.2,132.1C355.2,132.2,355.2,132.1,355.2,132.1"/>
		<path class="st281" d="M355.2,132.2l1.8-0.7c0,0,0,0.1,0,0.1L355.2,132.2C355.2,132.2,355.2,132.2,355.2,132.2"/>
		<path class="st280" d="M355.2,132.2l1.8-0.7c0,0,0,0.1,0,0.1L355.2,132.2C355.2,132.3,355.2,132.3,355.2,132.2"/>
		<path class="st279" d="M355.2,132.3l1.8-0.7c0,0,0,0.1,0,0.1L355.2,132.3C355.3,132.4,355.2,132.3,355.2,132.3"/>
		<path class="st278" d="M355.3,132.4l1.8-0.6c0,0,0,0.1,0,0.1L355.3,132.4C355.3,132.4,355.3,132.4,355.3,132.4"/>
		<path class="st277" d="M355.3,132.4l1.8-0.6c0,0,0,0.1,0,0.1L355.3,132.4C355.3,132.5,355.3,132.5,355.3,132.4"/>
		<path class="st276" d="M355.3,132.5l1.8-0.6c0,0,0,0.1,0,0.1L355.3,132.5C355.3,132.6,355.3,132.6,355.3,132.5"/>
		<path class="st275" d="M355.3,132.6l1.8-0.5c0,0,0,0.1,0,0.1L355.3,132.6C355.3,132.7,355.3,132.6,355.3,132.6"/>
		<path class="st274" d="M355.3,132.7l1.8-0.5c0,0,0,0.1,0,0.1L355.3,132.7C355.3,132.8,355.3,132.7,355.3,132.7"/>
		<path class="st273" d="M355.3,132.8l1.8-0.5c0,0,0,0.1,0,0.1L355.3,132.8C355.3,132.8,355.3,132.8,355.3,132.8"/>
		<path class="st272" d="M355.3,132.9l1.8-0.4c0,0.1,0,0.1,0,0.2l-1.8,0.4C355.4,133,355.4,132.9,355.3,132.9"/>
		<path class="st271" d="M355.4,133l1.8-0.4c0,0.1,0,0.1,0,0.2l-1.8,0.3C355.4,133.1,355.4,133,355.4,133"/>
		<path class="st270" d="M355.4,133.1l1.8-0.3c0,0,0,0,0,0.1L355.4,133.1C355.4,133.1,355.4,133.1,355.4,133.1"/>
	</g>
	<g>
		<path class="st0" d="M171.2,143.9c0,0.6-0.3,1-0.8,1.1c-1.5,0.5-3.1,0.7-4.8,0.7c-0.4,0-0.7-0.1-0.8-0.2c-0.1-0.1-0.2-0.4-0.2-0.9
			l-0.2-7.2c-0.1-0.6-0.1-0.9-0.2-1c-0.1-0.1-0.4-0.2-1-0.2l-4.2-0.3c-0.4,0-0.7,0-0.8,0c-0.1,0.1-0.2,0.3-0.3,0.7l-2.4,7.3
			c-0.2,0.5-0.3,0.7-0.4,0.8c-0.1,0.1-0.4,0.1-1,0c-0.7-0.1-1.4-0.3-2.1-0.5c-0.7-0.2-1.4-0.4-2.1-0.7c-0.4-0.2-0.7-0.4-0.8-0.6
			c-0.1-0.2-0.1-0.5,0.1-1l1.9-5.9c0.1-0.3,0.2-0.5,0.2-0.6c0-0.2-0.1-0.3-0.4-0.5c-0.2,0-0.3-0.2-0.4-0.5c-0.3-0.7-0.5-1.4-0.7-2.2
			c-0.2-0.8-0.3-1.5-0.4-2.3c-0.1-0.6-0.1-0.9,0.1-1c0.2-0.1,0.5-0.2,1.1-0.1c0.3,0,0.6,0,1,0c0.3,0,0.6,0,1,0c0.6,0.1,0.9,0,1,0
			c0.1-0.1,0.2-0.3,0.4-0.8c1.2-3.5,2.1-6.3,2.8-8.4c0.7-2.1,1.3-3.8,1.7-5c0.4-1.2,0.7-2.1,0.9-2.7c0.2-0.6,0.3-1.1,0.5-1.6
			c0.2-0.5,0.4-0.7,0.5-0.8c0.2-0.1,0.5,0,1,0.1c0.4,0.1,0.7,0.2,1,0.4c0.3,0.2,0.6,0.3,0.9,0.5c0.3,0.1,0.4,0.1,0.5,0.1
			c0,0,0.1-0.2,0.2-0.5v-0.5c0-0.5,0.1-0.8,0.2-0.9c0.1-0.2,0.4-0.2,0.9-0.2c0.8,0,1.5,0.1,2.2,0.3c0.7,0.2,1.5,0.4,2.2,0.6
			c0.6,0.3,0.9,0.8,0.9,1.4c0,5.5,0.2,10.9,0.5,16.3C170.9,132.8,171.1,138.3,171.2,143.9 M163.4,129.8c0.4,0,0.6,0,0.7-0.1
			c0-0.1,0.1-0.3,0.1-0.7c0-0.7,0-1.4,0-2.2c0-0.7-0.1-1.5-0.1-2.2v-1.3c0-0.7,0-1.4,0-2c0-0.6,0-1.3,0-2c0-0.2-0.1-0.2-0.2-0.2
			c-0.1,0-0.2,0-0.2,0.2l-0.9,2.5c-0.4,1.2-0.8,2.3-1.1,3.5c-0.4,1.2-0.7,2.3-1.1,3.5c-0.1,0.4-0.1,0.6-0.1,0.6
			c0,0.1,0.2,0.1,0.5,0.2L163.4,129.8z"/>
		<path class="st0" d="M189.7,120.2c0.3-0.8,0.5-1.5,0.7-2.3c0.2-0.8,0.4-1.6,0.5-2.4c0.1-0.3,0.2-0.6,0.2-0.9v-0.9v-0.3
			c0-0.1-0.1-0.2-0.2-0.2c-0.1,0-0.3,0-0.5,0.2c-0.7,0.5-1.3,1-1.8,1.7c-0.5,0.7-0.9,1.3-1.3,2.1c-2.3,4.4-3.9,9.2-4.6,14.2
			c-0.1,0.7-0.2,1.3-0.2,2c-0.1,0.7-0.1,1.3-0.2,2.1c0,1.5,0.2,2.8,0.5,4.1c0.1,0.3,0.2,0.5,0.3,0.5c0.1,0.1,0.3,0,0.6-0.2
			c3-1.4,5.4-3.4,7.2-6.1c0.3-0.4,0.5-0.6,0.6-0.6c0.2,0,0.4,0.2,0.8,0.5c0.6,0.5,1.1,1.1,1.5,1.6c0.5,0.6,0.9,1.2,1.3,1.9
			c0.3,0.7,0.3,1.3-0.2,1.9c-1.2,1.6-2.5,3-4,4.1c-1.5,1.1-3.2,2-5,2.7c-1.4,0.6-2.6,0.3-3.4-0.8c-0.2-0.2-0.4-0.4-0.6-0.6
			c-0.2-0.2-0.4-0.4-0.5-0.6c-0.4-0.6-0.9-0.9-1.7-1c-1.1,0-1.9-0.6-2.4-1.7c-0.8-1.8-1.2-3.6-1.4-5.4c0-0.3,0-0.5,0-0.8
			c0-0.3,0-0.6,0-0.9c0.2-2.3,0.4-4.5,0.9-6.8c0.4-2.2,1-4.4,1.8-6.6c0.4-1.1,0.8-2.2,1.3-3.3c0.5-1.1,1-2.1,1.5-3.1
			c0.4-0.8,0.8-1.5,1.3-2.2c0.5-0.7,1-1.3,1.6-1.9c0.2-0.2,0.4-0.4,0.6-0.6c0.2-0.2,0.4-0.4,0.6-0.6c1-0.7,2.1-0.9,3.3-0.7
			c1.4,0.3,2.6,0.8,3.7,1.5c1.1,0.8,2.1,1.7,3,2.7c0.4,0.5,0.7,1,0.8,1.5c0.1,0.6,0.2,1.1,0.3,1.8c0.2,1.2,0.1,2.3-0.1,3.4
			c-0.2,1.1-0.5,2.3-0.8,3.4c0,0.3-0.1,0.5-0.2,0.7c-0.1,0.2-0.1,0.4-0.2,0.7c-0.1,0.5-0.4,0.7-1,0.5c-0.7-0.3-1.5-0.7-2.4-1.3
			c-0.3-0.2-0.5-0.3-0.7-0.5c-0.2-0.2-0.5-0.3-0.7-0.5c-0.5-0.4-0.7-0.7-0.8-0.9C189.5,121.1,189.5,120.7,189.7,120.2"/>
		<path class="st0" d="M220.3,114.2c-0.1,0.7-0.4,1-1.1,1.1l-8.7,1c-0.4,0.1-0.6,0.1-0.6,0.2c-0.1,0.1-0.2,0.4-0.3,0.8l-0.8,5.3
			c-0.1,0.4,0,0.6,0,0.6c0.1,0.1,0.3,0.1,0.6,0c1.5-0.3,3-0.4,4.4-0.5c0.6,0,0.9,0,1.1,0.1c0.2,0.1,0.3,0.4,0.5,0.9
			c0.7,1.4,1,2.8,1.1,4.2c0,0.5,0,0.8-0.2,1c-0.2,0.2-0.5,0.2-1,0.2c-1.2,0.1-2.3,0.2-3.4,0.4c-1.1,0.2-2.2,0.3-3.3,0.5
			c-0.4,0.1-0.6,0.2-0.7,0.2c-0.1,0.1-0.1,0.3-0.2,0.7l-1,7.2v0.1c-0.1,0.4,0,0.6,0,0.7c0.1,0.1,0.3,0.1,0.7,0l4.7-1.1
			c0.6-0.2,1.2-0.3,1.8-0.4c0.6-0.1,1.2-0.2,1.8-0.3c0.4-0.1,0.7-0.1,0.8-0.1c0.1,0.1,0.3,0.3,0.4,0.6c0.4,0.7,0.7,1.4,1,2.2
			c0.2,0.8,0.4,1.5,0.5,2.4c0.1,0.7-0.3,1.1-0.9,1.2c-1.3,0.3-2.7,0.6-4,0.9c-1.4,0.3-2.7,0.5-4,0.8l-3.5,0.6
			c-0.6,0.1-1.1-0.1-1.4-0.5c-0.9-0.9-1.6-1.9-2.2-2.8c-0.4-0.7-0.9-1.1-1.6-1.2c-0.5-0.2-0.8-0.3-0.9-0.5c-0.1-0.2-0.1-0.6,0-1.1
			c0.4-2.3,0.7-4.5,1-6.7c0.3-2.2,0.7-4.5,1.1-6.7c0.3-2.1,0.6-4.1,0.9-6.2c0.3-2,0.6-4.1,1-6.2c0-0.4,0-0.8-0.2-1.3
			c-0.2-0.4-0.2-0.7-0.2-1.1c0-0.2,0-0.3,0-0.5c0-0.2,0.1-0.2,0.3-0.2c0.3-0.1,0.4-0.2,0.5-0.4c0.1-0.2,0.1-0.3,0.2-0.5
			c0-0.5,0.4-0.7,0.9-0.5c0.3,0.1,0.5,0.1,0.7,0.2c0.2,0.1,0.4,0.2,0.6,0.3c0.5,0.3,1.1,0.4,1.7,0.3c1.6-0.3,3.3-0.5,4.9-0.7
			c1.7-0.2,3.3-0.4,4.9-0.6c0.5-0.1,0.8-0.1,0.9,0c0.2,0.1,0.3,0.4,0.5,0.8c0.5,1.2,0.7,2.5,0.7,3.9V114.2z"/>
		<path class="st0" d="M245.8,140.3c0.4,0.2,0.5,0.5,0.3,1c-0.5,0.9-1,1.6-1.6,2.2c-0.3,0.3-0.5,0.5-0.7,0.8
			c-0.2,0.3-0.5,0.5-0.7,0.8c-0.3,0.3-0.6,0.5-0.8,0.5c-0.2,0-0.5-0.1-0.8-0.3c-1-0.6-2-1.2-2.9-1.8c-0.9-0.7-1.8-1.4-2.6-2.2
			c-0.8-0.8-1.6-1.6-2.4-2.4c-0.8-0.8-1.5-1.6-2.1-2.5c-0.1-0.1-0.1-0.1-0.1-0.1c0,0,0-0.1-0.1-0.1c-0.1,0-0.2-0.1-0.2-0.2
			c0-0.1-0.1-0.1-0.2,0c-0.1,0-0.1,0.1-0.2,0.4c-0.1,0.5-0.2,0.9-0.2,1.4c-0.1,0.5-0.1,1-0.2,1.4c-0.2,0.8-0.3,1.5-0.5,2.2
			c-0.2,0.7-0.3,1.5-0.5,2.2c-0.1,0.5-0.2,0.7-0.3,0.9c-0.1,0.1-0.4,0.1-0.9,0c-0.8-0.1-1.6-0.3-2.4-0.5c-0.8-0.2-1.5-0.5-2.2-0.8
			c-0.4-0.1-0.6-0.2-0.6-0.4c-0.1-0.2-0.1-0.4,0-0.8c0.4-2.1,0.8-4.1,1.2-6.1c0.4-2,0.7-4,1-6.1c0.3-1.9,0.6-3.8,0.9-5.7
			c0.3-1.9,0.7-3.8,1.1-5.7c0.1-0.4,0.1-0.8,0.1-1.2c-0.1-0.4-0.2-0.7-0.5-1.1c-0.4-0.5-0.6-0.9-0.8-1.4c-0.2-0.5-0.4-1-0.7-1.5
			c-0.3-0.5-0.3-0.8-0.2-1c0.1-0.2,0.4-0.4,0.9-0.6c0.4-0.1,0.7-0.2,1-0.3c0.3-0.1,0.7-0.2,1-0.3c0.4,0,0.7-0.3,0.8-0.7
			c0.1-0.7,0.2-1.1,0.4-1.3c0.2-0.2,0.7-0.1,1.6,0.1c0.3,0.1,0.6,0.2,0.9,0.3c0.3,0.1,0.5,0.2,0.8,0.4c0.5,0.3,0.9,0.4,1.4,0.5
			c0.5,0.1,0.9,0.1,1.4,0.2c1,0.1,1.9,0.2,2.9,0.4c0.9,0.2,1.9,0.5,2.8,1c1.9,0.9,3.2,2.3,3.9,4.3c0.4,0.9,0.6,1.8,0.8,2.7
			c0.2,0.9,0.3,2,0.3,3.2c0,0.3-0.1,0.7-0.3,1.2c-0.2,0.5-0.5,1-0.8,1.5c-1.3,2.1-3,3.9-5.2,5.3c-0.4,0.3-0.8,0.6-1.3,0.8
			c-0.4,0.3-0.9,0.5-1.3,0.8c-0.3,0.2-0.5,0.3-0.5,0.3c0,0.1,0.1,0.2,0.3,0.5c0.3,0.3,0.5,0.6,0.7,0.9c0.2,0.3,0.5,0.6,0.7,0.9
			c1.1,1.1,2.1,2.1,3.2,3.1c1.1,1,2.3,1.9,3.8,2.5c0.1,0.1,0.2,0.1,0.3,0.2C245.6,140.2,245.7,140.2,245.8,140.3 M233,126.3
			c0.8-0.4,1.6-0.8,2.4-1.3c0.8-0.4,1.6-0.9,2.4-1.4c1.8-1.1,3.3-2.6,4.6-4.4c0.2-0.3,0.3-0.5,0.3-0.6c0-0.1-0.2-0.2-0.6-0.5
			c-0.6-0.4-1.2-0.7-1.9-0.8c-0.8-0.3-1.6-0.4-2.4-0.5c-0.8-0.1-1.6-0.2-2.4-0.3h-0.6c-0.4,0.1-0.7,0.1-0.8,0.2
			c-0.1,0.1-0.2,0.3-0.3,0.7c-0.1,0.4-0.2,0.8-0.2,1.2c0,0.4-0.1,0.8-0.1,1.2c-0.2,1-0.4,2-0.5,3c-0.2,1-0.3,1.9-0.5,2.9
			c-0.1,0.1-0.1,0.2-0.1,0.3c0,0.1,0,0.2,0.1,0.3c0.1,0.1,0.2,0.1,0.3,0C232.8,126.4,232.9,126.4,233,126.3"/>
		<path class="st0" d="M271,115.7c0,0.3,0,0.4-0.1,0.5c-0.1,0.4-0.1,0.7-0.3,0.8c-0.1,0.1-0.4,0.2-0.8,0.2l-6.4,0.2
			c-0.8,0.1-1.2,0.1-1.2,0.2c-0.1,0.1-0.1,0.4-0.2,1.1c-0.5,2.9-0.9,5.7-1.3,8.5c-0.4,2.8-0.8,5.6-1.3,8.5c-0.2,1.2-0.3,2.4-0.5,3.7
			c-0.2,1.2-0.4,2.4-0.6,3.7c-0.1,0.4-0.1,0.6-0.2,0.7c-0.1,0.1-0.3,0.1-0.7,0c-0.9,0-1.7-0.2-2.5-0.4c-0.8-0.2-1.6-0.5-2.3-0.8
			c-0.4-0.1-0.6-0.2-0.6-0.4c-0.1-0.2-0.1-0.5,0-0.9c0.3-1.7,0.6-3.4,0.9-5.2c0.3-1.7,0.6-3.4,0.8-5.2c0.4-2.1,0.7-4.2,1.1-6.3
			c0.4-2.1,0.7-4.1,1.1-6.3c0-0.4,0-0.6,0-0.7c-0.1-0.1-0.3-0.1-0.7-0.1h-2.2v0.1h-2.1c-0.4,0.1-0.8-0.1-1.1-0.5
			c-0.9-1.5-1.5-2.9-2-4.3c-0.2-0.5-0.2-0.8,0-0.9c0.1-0.2,0.4-0.3,0.9-0.3c1.3-0.1,2.5-0.1,3.8-0.2c1.3-0.1,2.5-0.1,3.8-0.2h0.5
			c0.2,0,0.3-0.1,0.4-0.2c0.3-0.4,0.7-0.4,1.2-0.2c0.4,0.2,0.8,0.2,1.3,0.3c0.5,0,0.9,0,1.4,0c1.3-0.1,2.7-0.2,4-0.2
			c1.4,0,2.7-0.1,4.1-0.2c0.4,0,0.7,0.1,0.9,0.2c0.2,0.1,0.3,0.4,0.5,0.8c0.3,0.7,0.4,1.3,0.5,2C270.9,114.3,271,115,271,115.7"/>
		<path class="st0" d="M291.9,143.9c0,0.6-0.3,1-0.8,1.1c-1.5,0.5-3.1,0.7-4.8,0.7c-0.4,0-0.7-0.1-0.8-0.2c-0.1-0.1-0.2-0.4-0.2-0.9
			l-0.2-7.2c-0.1-0.6-0.1-0.9-0.2-1c-0.1-0.1-0.4-0.2-1-0.2l-4.2-0.3c-0.4,0-0.7,0-0.8,0c-0.1,0.1-0.2,0.3-0.3,0.7l-2.4,7.3
			c-0.2,0.5-0.3,0.7-0.4,0.8c-0.1,0.1-0.4,0.1-1,0c-0.7-0.1-1.4-0.3-2.1-0.5c-0.7-0.2-1.4-0.4-2.1-0.7c-0.4-0.2-0.7-0.4-0.8-0.6
			c-0.1-0.2-0.1-0.5,0.1-1l1.9-5.9c0.1-0.3,0.2-0.5,0.2-0.6c0-0.2-0.1-0.3-0.4-0.5c-0.2,0-0.3-0.2-0.4-0.5c-0.3-0.7-0.5-1.4-0.7-2.2
			c-0.2-0.8-0.3-1.5-0.4-2.3c-0.1-0.6-0.1-0.9,0.1-1c0.2-0.1,0.5-0.2,1.1-0.1c0.3,0,0.6,0,1,0c0.3,0,0.6,0,1,0c0.6,0.1,0.9,0,1,0
			c0.1-0.1,0.2-0.3,0.4-0.8c1.2-3.5,2.1-6.3,2.8-8.4c0.7-2.1,1.3-3.8,1.7-5c0.4-1.2,0.7-2.1,0.9-2.7c0.2-0.6,0.3-1.1,0.5-1.6
			c0.2-0.5,0.4-0.7,0.5-0.8c0.2-0.1,0.5,0,1,0.1c0.4,0.1,0.7,0.2,1,0.4c0.3,0.2,0.6,0.3,0.9,0.5c0.3,0.1,0.4,0.1,0.5,0.1
			c0,0,0.1-0.2,0.2-0.5v-0.5c0-0.5,0.1-0.8,0.2-0.9c0.1-0.2,0.4-0.2,0.9-0.2c0.8,0,1.5,0.1,2.2,0.3c0.7,0.2,1.5,0.4,2.2,0.6
			c0.6,0.3,0.9,0.8,0.9,1.4c0,5.5,0.2,10.9,0.5,16.3C291.6,132.8,291.8,138.3,291.9,143.9 M284.2,129.8c0.4,0,0.6,0,0.7-0.1
			c0-0.1,0.1-0.3,0.1-0.7c0-0.7,0-1.4,0-2.2c0-0.7-0.1-1.5-0.1-2.2v-1.3c0-0.7,0-1.4,0-2c0-0.6,0-1.3,0-2c0-0.2-0.1-0.2-0.2-0.2
			c-0.1,0-0.2,0-0.2,0.2l-0.9,2.5c-0.4,1.2-0.8,2.3-1.1,3.5c-0.4,1.2-0.7,2.3-1.1,3.5c-0.1,0.4-0.1,0.6-0.1,0.6
			c0,0.1,0.2,0.1,0.5,0.2L284.2,129.8z"/>
		<polygon class="st291" points="157.4,171.3 180.1,171.3 180.1,184.1 157.4,184.1 157.4,192.4 184.4,192.4 184.4,206.1 
			139.8,206.1 139.8,149.4 184.4,149.4 184.4,163.1 157.4,163.1 		"/>
		<polygon class="st291" points="244.1,149.3 244.1,206 228.4,206 207.8,181 205.2,177.8 205.2,206 187.6,206 187.6,149.3 
			204.3,149.3 223.9,174.2 226.6,177.6 226.6,149.3 		"/>
		<polygon class="st291" points="264.9,171.2 287.7,171.2 287.7,184 264.9,184 264.9,192.3 291.9,192.3 291.9,206 247.4,206 
			247.4,149.3 291.9,149.3 291.9,163 264.9,163 		"/>
		<polygon class="st291" points="366.5,206 349.7,206 348.6,186.7 348.3,181.6 345.8,186.1 334.6,206 324.8,206 313.5,186.1 
			311,181.6 310.7,186.7 309.7,206 292.8,206 295.2,149.3 310.1,149.3 328.4,179.2 329.7,181.3 330.9,179.2 349.3,149.3 
			364.1,149.3 		"/>
	</g>
</g>
</svg>
