<svg width="21" height="20" viewBox="0 0 21 20" fill="none" xmlns="http://www.w3.org/2000/svg">
<path d="M10.8044 0C5.28444 0 0.804443 4.48 0.804443 10C0.804443 15.52 5.28444 20 10.8044 20C16.3244 20 20.8044 15.52 20.8044 10C20.8044 4.48 16.3244 0 10.8044 0ZM8.63638 14.1875L5.04638 10.5975C4.65638 10.2075 4.65638 9.5775 5.04638 9.1875C5.43638 8.7975 6.06638 8.7975 6.45638 9.1875L9.34638 12.0675L15.6132 5.80069C16.0032 5.41069 16.6332 5.41069 17.0232 5.80069C17.4132 6.19069 17.4132 6.82069 17.0232 7.21069L10.0464 14.1875C9.66638 14.5775 9.02638 14.5775 8.63638 14.1875Z" fill="white"/>
</svg>
