<?xml version="1.0" encoding="UTF-8"?>
<svg xmlns="http://www.w3.org/2000/svg" xmlns:xlink="http://www.w3.org/1999/xlink" width="202pt" height="195pt" viewBox="0 0 202 195" version="1.1">
<g id="surface1">
<path style=" stroke:none;fill-rule:nonzero;fill:rgb(100%,100%,100%);fill-opacity:1;" d="M 87.359375 154.847656 L 87.359375 114.105469 L 119.78125 114.105469 L 119.78125 154.847656 C 119.78125 159.339844 123.421875 163.003906 127.882812 163.003906 L 152.1875 163.003906 C 156.636719 163.003906 160.289062 159.339844 160.289062 154.847656 L 160.289062 97.800781 L 174.0625 97.800781 C 177.785156 97.800781 179.570312 93.15625 176.730469 90.710938 L 109 29.339844 C 105.925781 26.566406 101.214844 26.566406 98.140625 29.339844 L 30.410156 90.710938 C 27.652344 93.15625 29.355469 97.800781 33.078125 97.800781 L 46.851562 97.800781 L 46.851562 154.847656 C 46.851562 159.339844 50.503906 163.003906 54.953125 163.003906 L 79.257812 163.003906 C 83.71875 163.003906 87.359375 159.339844 87.359375 154.847656 Z M 87.359375 154.847656 "/>
</g>
</svg>
