<svg width="23" height="23" viewBox="0 0 23 23" fill="none" xmlns="http://www.w3.org/2000/svg">
<path d="M1.29543 5.12314C0.690435 5.12314 0.195435 5.61814 0.195435 6.22314V20.5231C0.195435 21.7331 1.18543 22.7231 2.39543 22.7231H16.6954C17.3004 22.7231 17.7954 22.2281 17.7954 21.6231C17.7954 21.0181 17.3004 20.5231 16.6954 20.5231H3.49543C2.89043 20.5231 2.39543 20.0281 2.39543 19.4231V6.22314C2.39543 5.61814 1.90043 5.12314 1.29543 5.12314ZM19.9954 0.723145H6.79543C5.58543 0.723145 4.59543 1.71314 4.59543 2.92314V16.1231C4.59543 17.3331 5.58543 18.3231 6.79543 18.3231H19.9954C21.2054 18.3231 22.1954 17.3331 22.1954 16.1231V2.92314C22.1954 1.71314 21.2054 0.723145 19.9954 0.723145ZM11.1954 14.4731V4.57314L17.2124 9.08315C17.5094 9.30315 17.5094 9.74314 17.2124 9.96314L11.1954 14.4731Z" fill="white"/>
</svg>
